<mxfile host="app.diagrams.net" modified="2024-05-08T20:47:45.779Z" agent="Mozilla/5.0 (X11; Linux x86_64) AppleWebKit/537.36 (KHTML, like Gecko) Chrome/126.0.0.0 Safari/537.36" etag="GyuJvlXKynmP5Ao1t7J-" version="24.2.0" type="device">
  <diagram name="Page-1" id="VJ8ssHSb8q6VpkLXz4cz">
    <mxGraphModel dx="1518" dy="1303" grid="1" gridSize="10" guides="1" tooltips="1" connect="1" arrows="1" fold="1" page="1" pageScale="1" pageWidth="850" pageHeight="1100" math="0" shadow="0">
      <root>
        <mxCell id="0" />
        <mxCell id="1" parent="0" />
        <mxCell id="w8Vbcdg7vdcL743dD8y6-1" value="AWS Cloud" style="sketch=0;outlineConnect=0;gradientColor=none;html=1;whiteSpace=wrap;fontSize=12;fontStyle=0;shape=mxgraph.aws4.group;grIcon=mxgraph.aws4.group_aws_cloud;strokeColor=#AAB7B8;fillColor=none;verticalAlign=top;align=left;spacingLeft=30;fontColor=#AAB7B8;dashed=0;" vertex="1" parent="1">
          <mxGeometry x="20" y="30" width="1000" height="570" as="geometry" />
        </mxCell>
        <mxCell id="w8Vbcdg7vdcL743dD8y6-13" value="Generative AI built around AWS Bedrock and Langchain" style="outlineConnect=0;gradientColor=none;html=1;whiteSpace=wrap;fontSize=12;fontStyle=0;strokeColor=#879196;fillColor=none;verticalAlign=top;align=center;fontColor=#879196;dashed=1;spacingTop=3;" vertex="1" parent="1">
          <mxGeometry x="239" y="254" width="556" height="150" as="geometry" />
        </mxCell>
        <mxCell id="w8Vbcdg7vdcL743dD8y6-8" value="Models for Health Predictions and Forecasts" style="outlineConnect=0;gradientColor=none;html=1;whiteSpace=wrap;fontSize=12;fontStyle=0;strokeColor=#879196;fillColor=none;verticalAlign=top;align=center;fontColor=#879196;dashed=1;spacingTop=3;" vertex="1" parent="1">
          <mxGeometry x="239" y="430" width="556" height="150" as="geometry" />
        </mxCell>
        <mxCell id="w8Vbcdg7vdcL743dD8y6-2" value="" style="sketch=0;points=[[0,0,0],[0.25,0,0],[0.5,0,0],[0.75,0,0],[1,0,0],[0,1,0],[0.25,1,0],[0.5,1,0],[0.75,1,0],[1,1,0],[0,0.25,0],[0,0.5,0],[0,0.75,0],[1,0.25,0],[1,0.5,0],[1,0.75,0]];outlineConnect=0;fontColor=#232F3E;fillColor=#01A88D;strokeColor=#ffffff;dashed=0;verticalLabelPosition=bottom;verticalAlign=top;align=center;html=1;fontSize=12;fontStyle=0;aspect=fixed;shape=mxgraph.aws4.resourceIcon;resIcon=mxgraph.aws4.bedrock;" vertex="1" parent="1">
          <mxGeometry x="289" y="291" width="78" height="78" as="geometry" />
        </mxCell>
        <mxCell id="w8Vbcdg7vdcL743dD8y6-5" value="Amazon SageMaker" style="sketch=0;outlineConnect=0;fontColor=#232F3E;gradientColor=none;strokeColor=#ffffff;fillColor=#232F3E;dashed=0;verticalLabelPosition=middle;verticalAlign=bottom;align=center;html=1;whiteSpace=wrap;fontSize=10;fontStyle=1;spacing=3;shape=mxgraph.aws4.productIcon;prIcon=mxgraph.aws4.sagemaker;" vertex="1" parent="1">
          <mxGeometry x="459.12" y="460" width="80" height="110" as="geometry" />
        </mxCell>
        <mxCell id="w8Vbcdg7vdcL743dD8y6-7" value="Amazon API Gateway" style="sketch=0;outlineConnect=0;fontColor=#232F3E;gradientColor=none;strokeColor=#ffffff;fillColor=#232F3E;dashed=0;verticalLabelPosition=middle;verticalAlign=bottom;align=center;html=1;whiteSpace=wrap;fontSize=10;fontStyle=1;spacing=3;shape=mxgraph.aws4.productIcon;prIcon=mxgraph.aws4.api_gateway;" vertex="1" parent="1">
          <mxGeometry x="480" y="100" width="80" height="110" as="geometry" />
        </mxCell>
        <mxCell id="w8Vbcdg7vdcL743dD8y6-9" value="" style="sketch=0;outlineConnect=0;fontColor=#232F3E;gradientColor=none;fillColor=#01A88D;strokeColor=none;dashed=0;verticalLabelPosition=bottom;verticalAlign=top;align=center;html=1;fontSize=12;fontStyle=0;aspect=fixed;pointerEvents=1;shape=mxgraph.aws4.sagemaker_model;" vertex="1" parent="1">
          <mxGeometry x="293" y="470" width="70" height="70" as="geometry" />
        </mxCell>
        <mxCell id="w8Vbcdg7vdcL743dD8y6-10" value="" style="sketch=0;outlineConnect=0;fontColor=#232F3E;gradientColor=none;fillColor=#01A88D;strokeColor=none;dashed=0;verticalLabelPosition=bottom;verticalAlign=top;align=center;html=1;fontSize=12;fontStyle=0;aspect=fixed;pointerEvents=1;shape=mxgraph.aws4.sagemaker_model;" vertex="1" parent="1">
          <mxGeometry x="639" y="470" width="70" height="70" as="geometry" />
        </mxCell>
        <mxCell id="w8Vbcdg7vdcL743dD8y6-14" value="AWS Lambda" style="sketch=0;outlineConnect=0;fontColor=#232F3E;gradientColor=none;strokeColor=#ffffff;fillColor=#232F3E;dashed=0;verticalLabelPosition=middle;verticalAlign=bottom;align=center;html=1;whiteSpace=wrap;fontSize=10;fontStyle=1;spacing=3;shape=mxgraph.aws4.productIcon;prIcon=mxgraph.aws4.lambda;" vertex="1" parent="1">
          <mxGeometry x="634" y="291" width="80" height="100" as="geometry" />
        </mxCell>
        <mxCell id="w8Vbcdg7vdcL743dD8y6-18" value="" style="shape=image;verticalLabelPosition=bottom;labelBackgroundColor=default;verticalAlign=top;aspect=fixed;imageAspect=0;image=data:image/png,iVBORw0KGgoAAAANSUhEUgAAB9AAAAPnCAMAAABA1idNAAAC+lBMVEVHcEx8r7aCsbyBsLuEr8CFsMGFsMGEsMGEsMGEsMGEsMGEsMGEsMGEsMGEsMGEsMGEsMGBs7qAsaGfs3bwrg/xsw38MSD3LiH6MCD/MSD/MCGEsMGEsMGEsMGEsMGEsMGEsMGEsMGEsMGEsMGEsMGEsMGEsMGEsMH/KyP/KyOEsMGEsMERrk7rLSKiMR4ErEcHrUg4jzwBq0YDrEYTq1ABq0YBq0YCq0YIrUkBq0bUQSgUqUG1REAErEcNq04CrEafXC4AqkV0dzMDrEegKhvKKh7sgK/NYXHsgK/sgK/jdZv+T0L9dmPxmIT3tZnyyqr40LD707P91LTgx6THqI+pkXuPe2lyY1ZZUkFDPjYxLyovLikuLCj+uwVwwHP/1R3/1R3+xiX4s1VSuGn/1R3/vgb/vwc5tF7+vQb/vgf/1R28yZcls1b3vwgYtFH/1R2Xw4cMsEwHrkn/wAjxwQoPsU0Rsk8Kr0sTs1D/vgYFrUget1X/shf/fBD/YA3/Xwz/lRP+aw/JcRkbtlQpu1yzzxyrzyWcyiOIyCxwwi9TvDTiyR85tjkmsz/DyTlEvEa30BmDr8CHtcaMvMySxNOXzNud1OKi2+mn4e+o4/C30Bm30Bm30Bm20Bn/ugK30Bp+rL1XkqM2fI07gJFBhJVEhpcveIkud4g3fY4+gpMyvl+30BkWtFJimaptobJ1prcVtFFBhJVMi5wYtVMrvF0guFciuVgkulknu1pFxmsrvF1FxmsuvV4svV4yv2EwvmA0wGI2wGM3wWRx14Q7wmY5wmVz2IQ/xGhx14Q9w2c/wV1BxWlFxmtiyFVCxWpExmpHx2xJyG1KyG5MyW9PynFRy3JVzHROynBOym9UzHNWzXV9zk9ZznZ32odcz3de0Hli0Xtg0Xpm03532Ydk0nxm031q1H9o1H+f0j142od42ohs1YFu1H9u1oJ52ohx14Nz2IV12YZ32Yd42oh52oiJ1mqa01iA2Hv/ugH+ugL+ugL+ugL+ugL+ugIWfaXoAAAA/nRSTlMADiArNz9JVm6JkKW4sJZ3YxcHAwwYKUhxnsSCw8zS297s8v/95tee5v/54h//wXpG/+GsEf/vv2D5////lTDR////////g//V//////////////////////////+j/5Pw/////4dp/1hJ2f/6N//A////eSf/////sP///////////////v//////////////////////////tI7qbOHQ///iw3FL////muRK///////////J/////7D/jv////////9v//85/1P/////////////////2v///////4v/////26r//////8Tw////3f////////////D/wpT50u/7tisAAK7ZSURBVHgB7NkHcuowFIXh627AVcKVEmwJkJX9r+/1XuLQLeZ8oz2c+a/IDAAAAJbtuJ4fBGEYzuafLaIv4mT+WRqGWRD4rmvnjMBQfFkUZVlVVV03n7S/aD6p67qqqrIsiyUjAAAwB7Ny2/GCcJXE0Xqzfdl1XS9+klJI8ZPsu/3LYbOOouM8zXzXsXOLwAicFeWXFW9bNYxQSrVf1r0qC8YJAAAmjDPb/bLjm12vtRRSSnECKaTW/X4bLWZp5jsW4wRTtSyrqm5apdRwGvVJ+23XCQAAJobZjp/NFuvDvpdCCPnlXaLvdtsoCQPXsWhqcGCv6vEmH/U52OsKZ3gAgIlglu1ls3j9qsUXUlyT7LbRMQ2cnBFMQVFWn7N8uJYvtV6VSwIAgAdijh/O17tOi9vq99vFKnBzTvBAy7Jufu3y6646LvAAAA/BcjdLokMv7kbu14vUty2CB+BFVbdquKXPqV5wAgCAu+G2nx63vRZ3J/U+mmWuRWZCmo9QGHUAgHthtpfGh048kH5dzwMnp7vBmqvhfr6c35cEAAC3wyw3XWx7IcXDyX00D2xGcFv8y5rfnWrrqiAAALgF5gTJppNiOvpdnHo5wc0UVaOGB1FtUyHUAQCuLXfT+EWL6enWCUL9NlhZt8NjqaYuOQEAwJXk/mrdSTFV+nDMHEZmQpyPUPhQBwC4Cm77yaYTE6df4tCxCK6Ej8Q5Ot0sAAA8D+YbLYwg93GITr8KVjZqmBSlmqokAAA4j+WvNr0wiH5dZA6ni8CyatQwQW1TLelUAABgOWnUC+PIwzHIOZ0L2DTn/AvVnnh6BwAAO1vspTBTv1l5jMDAOh+nmqqg9wEAgNybb7Uw2T7KbEYnAj71Of/iXZkOAADcDqNeGE8fEs+iEwAvGzUYQY39pgMAgOXNDlo8hy7KbHovKGs1GEM1dUH/AwAAeRZ34mlIKTcrl9E7QFGrwSxtXdI/AAAAd9KNFk9Gvh59i0bAsmoH87RNyeh3AADA3PlBimfURVlObwBeNYOZVFMx+gkAACz/2ImnpTehTSPweW78pAMAQB7EnXhiUuiP7N0Heuo6EIZh4RBKuu30BlhOwYF0QZwe4Ox/SbdfneJUysGSvncT/zOjmdH+MhfkbOq2M/KeBQB+eSGR9qtViXRDVtWo0gFgCN7KQiTdUH8j0plttyHSW6EAAIf5ld1Eao5V6dDddvO1T8/OAwEAjvLLhsc5VTrluXZxeXV+LQDAQYWybrY7FulCozy3x4VSne6Nc5EOAIXSYiLdtL/sCYbbdXluifaF+kvavWkJAHBIMDsfSWfF+xXf+eH2pkV0oP8lpUoH4JLi3IF0WZzslgvCXYE97Xbt9kL9J726CQQAuMDbqUvnRfOzgXBTuKp3zy1ye6e0zpUDE+8A4K/sxVJKHCw5OvC+vt200P2d+sHlw6MAAKsF32fhcLjs0263M9BV+sRTOgCrzcw1JH54Si8FTLfb4flF/Sy9Og+FnQDArxzKHyCOG0du9d31dLt1nlVG56wlLAQAYemVT1hQW/Z5PrdAr/+iMroMx1kIgFdtyFhmIFlwpe8ebtib5+2eek3noSWsAgBBeU/iDQdVTzggyDyfW3dXJiu1q0gHgJmjSOJN8V45YBzOykBXfYte0gGgsHIo34M4Wpohz+04FJfVPRdWAICZT9xth+VF+upWM8POQ3FZ6eXZtbAAAMrzfek6ivS1rabd7l+UxmycpQBezxNpKYp01s+zd2Xe0OXKDACzBeV9iU+Lqh71uZl6L+p9l2eBAABjeXOR/ALEu6WQ+txEPaXRdrcOgLC0G8uvwcGyT56bp33RVx/pdx+FiQCgsHwg8WXJfJF+ux1baxlP58I8ADAzn0gMY78csK9mxdZaRoc/VY0DIOTU6/Ciqi9sEeg8d3nIXes8kOhmAVDYaUgMLVkoWnO/vemEZ/VJ6VVLmAYA7XbQdv/v3itD7lpqzmgcAASlfYkRNXZ8Yb4NR/Jcf83CaBwAmxQqBxIjS+Y9YbhwfbtJoGc9cTXOCAC8pUhiHIw/MvNznjPkrl3ehCLvAKC4IDEmJysBC2sWDLlzB9ZEALjdPk6RyQ/p4fcBdy65/6qT70QHgIDncx7S3RmI09q9vvqilC/S8wyAX40kxireLfKAbtNMnJZyYia/AHhsn49fvF8KeUA3ZyaORAdggeKuxAQcrARclDFlJo5EB2CB0r6MJSYg2ikI06wfNx3SUyQ6AGuEKycSExIt+TTc8+xCaSS64QAElYbExMSmDbtvNjVm4kh0gwAo7EQSExQvFJlwz637O0WiA7CDv5RITJZJ62vhVlNjJo5ENwcA7yiRmLT9EidlcqrXzyQ6N+NMBMBblPgNaqYspK9uN3lCJ9HNA2BmQeK3OFkJzZ+I46xMRoe/1wBwTsYxB0Yk+tp2kyf0Lya6AADy3CkHlYBP1nKnp0bUvzwXADBls+T5bxUtB9asrPGErqWXjwIApqp0KEGiD/uCzhO61iXRAUxVqSZBog9boPOErvXVVUsAAPU5iW5Ygc7PLFlX1wIAqM9JdEbcDX1C11LW0QFQn5PoJhboHHLPJHooAIA8J9E5EjcdvRc1JiyvOQeg347GSsgV93xoX/THleh9ltdyAqA+BzfjtposrY2g2xIAQH1OorOzZuqMu+bcX6oAqM9RLzESlwPti5ECncE4AOQ5aiWRN6tbzLjzTwsA+u34ov2iyJn1Ywc77mP29CjcAoD6HPHeDB33KbsdvePOYBwA6nMseoZ33LnjnpU+BMItAKjPEc/7xnfcGYnjGR0A9TniuYLIjXCDkTguxgEgzzGMOMnREdhwi5E445/RAdBvB0dgg20Hr8S9qAlIuS/jHoD6HCclkQ8bm8ftNv+yGP2MDoD6HKyjr50O/vbt27d2252dtQnps43uIID6HAueyIGNgTZ0qrOzpl1dC9cAIM9xVBBTd705+MVfoc5RmeFx1N09AHmOZCeYfqCfDl7x6UKdAp3dNQDkOeIcjLqvD7ThMp0Cnd01AMzDoT4rpmxz8LbP9d4ZcecELADqc+x6YqpC3XEfMdMZcdc658I1AMhzxPMFMU3rOtBHjXQKdO2pJVwDgDxHshNO9Yz7IMvqsff7iRyJo+kOgDzHQTnHHXfryvT2hdJoulsCIM/BxbhQL625EunPL5Mp0Jl0B0CeI170c3EmbuRIZ2VNSzkvA4A8577M9JfW7I303p/s3WWe3DAMQPEyc/u1zMy8DCHZjuX736W0zJsZBTr7/uVe4P3kOMr85258YKc7gCPYc9zv5TH6rZNnsnzV1NTUoYq+/J8fuLd5I46d7gDoOe6c7DzmZ7OiKDdUVZVPTU34kP663QN3PqQKgJ6j27fRT2RZUe6iyic66a9bPnDnXhwAeo4X5zq7RHXj1EbN92l643N3XkHnXhwAeo5Hjzta6n5zJef7qaYGMKSLiBO3TkQsbrh3apZ7cQCOYs9x6UQXOT+xT86bjOmvWyy5c96Huq5jjLoixljXwXsnMuwDd/bFAaDneNTBu2u3VnJukfQ2hvS/KQ8havpLU9Q/4sqvuPJ/GoJ30v9KGb6MDqDHnoN3105mZQP5VJdFF+dD/a/l+sfGb9sk1Vh7JwN/gL7i+0dGdAD0nC+pmrt5pihXGE3py4Y1DyHqYaWUYnAyzBVxrHQHQM/x6EKrA93Kcbtl0petah5VkzYUvWv0AP1z99guA4Cec+hu7nhWjqLK2z12F+dr1agjaDSmL3T+AJ3tMgDoOYfu/fd8Q7X/S2yvDYbzkaUUnNivfDX0/SsjOgB6zqF7/z1fkU+1U3TxtSYdS0q1k4E+QGdEB0DPOXTvr+fNN80sj5zzoBZScDKsjTKM6ADoOR61cuh+IyvHlE9ZF90FTUktpBTcQZ9k+TzfW9EZ0QHQcz6NbiUrx1bZFl1CVDsxerHbEMdFdwD0HAZa2Ol+qigN5HZFFx/VVgpuv54bFN3wXXQAoOePNjycWJetP6R6qyhN5FNGRZeg1lJKXnbv+coF995HdACg549+s3cX3m0jWxjAR2BqXDuW2kO208QBn+MsMxSW8lJybY1lmlEh2dIyw5//qmXKWLKu7Znk+y1vGb9z79y509nda5bPr1Uq9Wq1+Psf9XOV9vlyY2O/dcrCfYf6IVX/fzeI3KRJ9G4voKYo0lee5yjRAQB53trda6yVivmc49g1y/t3UlmWbTtuvlhfi4N9+7TYcLRpuCffMnOQvN0eLAbn8Um6bnkew6NrAHB283yntV9uVwuu7flsBv+Xv3k1t1CslDdbndPwra94tBPuhNSJvox2uwIP7tzSLc9jr1xlAABnMM939hvtYt6upQ81z7JzxUpj0/hQ38ozOooXWWgP0g8I8py47R7nuQ6u+AwA4GzleWe3USq4NZaF5RZK5V2zQ71c07NAj93Mkui3e8Fi8f5tghdTqV17jgHAGYI87zTb647ls+x8y1lvNw0+VG8VNTxBJ0j0W71g4f4y7X755df18PaLPjsjAAB5vtso5W2f0fHtXL2xi7k44gJdnejPL6Q+57/467+o3bn1Z56//7oW3jwbJToAIM9b5XrOYvQst1reMnOQoOQzEl5coJNTJDpxfc457w0GYRgOY2EYDnozN8b240Rf9vk5nmgBAOR5q1HK1diiWLl6o3WG98U56kCnTvSD5wnn4eIsD4ej8WQ6FUJIKYUQ08l4PAx7fT6zRo/n299/XReveuxUAwDkeedSJV9ji1XLVwwcfG9bjEL+Bjl1olPlOef9cPgsy0UUyWfEr6SMIimmk1HY4+rXWpZ4Xw031wAAed4qFx2PLZ5nF8umlemtPCNw8e6Nm5okejdIZRCOpyKSUZzlfydj0/FQGem9ex8uKc9xcw0AkOf7bfriXFGmt/fP3tW1i/cfHB0dHx93u92lJLriGP12qgUxg+EkDm5xkvjDxqGi8d4ffLyMhjturgEA8nxno+R6bJk8t7S3Y1KJvs6yunD/4W+O4lynTfWbikTPNhDHe3/GuSrSp6OB4jMZfLzwnjueRQcA5HmnWbV9tmy+XW8adJjerLFsvEcPHv7NL6m+8EQ/yHaAzvvhWERSzBRJMQn7ikRfcI2ON9cAAHneaazX2GrYRXMivVPMmOeP/8zzv4V6t7v0RL+dojwfTaUUichoOlQl+pP338dYHAAgz42Oc3Wk75yJ7TL+0wcPT6IIdYpEf37+hjsPx0JKkZCU06His9Yq0T88XdviAAB53tko1thq2VVDztJ36iyDTz59qECT6YcJj9GTN9zDSSRFCsoaPfjsc41K9GunqecOAMjzS1WbrZ5d2jSjRLfZ3L5Q5Dldph8marrf7gfJ9MO43Z5GFE2HgSLRv1xAjY5tcQCAPN895/hMB57b3jKiRPfZnC5+9TCBONMXn+jJJ+LCaSRFOlJOQ8Xtta+/0adGv+IxAIBTkeet8zmf6cIrNAyYjttzMl1YW0amJzhGv528Po/EHCYDHpzo3rfvYyyOFAAgz5vrFtNJrXrp1L7R4n/34KEaSaQrBuMO5ijQFf12FSlGipZ+7x7ldXRcRQcA5PluyWGa8d21lvYzB858A3EPHqZz3KVP9HQFej8YTCIxl2gach1H3fFCixoA5DdN3AtXzvtMP976xrbmqj5L73v1ATpxpB+qm+5JC/TeWEoxFxmNFU13Tjbqjp47AKA+36/WmJ6ctuZF+p7N0vIv3H04j6MuaaIfpDtB7w+FFHOSYqgIdP71D5ok+tsvMgAwGfJ8p5xjc0KR3qmnD/Q/N8Qtp0pXN927CRfKTKWY30S11b1P8fIa1r8CAPJ8q15jOnP0PknfsIk3yhBHuiLRn0+xJK4/liKLIVd183XZ6v4Geu4GA0CeN/Ie05pvFbV+WLVIfwNdOfFO3HRP1nHnw0wFuozGvUAh6zE6eu4AgHm4Vtth2vNzjdPz6Jr/6GE2R12yRH8+6UgcH0zUE3HZBt0512W/zJtxzx0AILdn3jRc0WImsDWejeus099YUzumarofPAv0frICXUiRSTRSP8mqyW10zLnHAMBtmrdLJs8MYRV39T20qNE23OmLdEWid4MkepMoa6BPBoHK4IkWgf7hWwwAzIM876w5zBh+Qdtp91YhzYq4hySOiZruyd5Z46GQIhvVRvcY/+zH97FbBgCQ53NplWrMJG5Z10dVz3uUb6zRF+mKpe7v9JLkeW8ciYykHAVKc95dQ88dAJDn++seM0ut3dHzHv9Wjv5NFrJEVzfdD5ONxE2lyCqec6dvumOfOwAgzzfyPjONVdd0NO6cxxLx44k4MscETfdukEQ8EpeVnA54oPRZ+oVx6LkDAPK87DIDeZqOxm06iSfiCB0RJPog2Rb3iCDQRcgDJT0m3V95jgEA8twcO2s2M5Jf0PKqf6fKEnn8kNZxN2PT/XIvmK0fd9wJzDpET9t0R88dAJDnnUqNmSq/p//NNcpH1ggSXVGiH/bJL6ErlsUFs3z9kwaJfoUBAPLcFK1zFjNXTsfv7k6B/spaIkfZEr3Lk1ToIykoTHqBGtdip/u11xgAGAJ5XrWYydyGhmcYSW6uff/pw+UnurrpHvJkW2UEgWgy4IEa/+zL1Qf6Gy8xADAE8txjZnM0TPRdl83ixQX68hNdVaJfvhMkoD5Cp1otE+PByi6j44EWAECex1Cj79T9BAW6Bol+OfVMHA9JA53uMjoeRQcA5Dk91OhNm/4EnSDR1U33y7QzcWpSDmcHOv/621Un+oe4uAZgPuQ5anSSsThFga5Boh+m3hM3iqSgECUI9IB+Lg4X1wAAea4zp2nYQnc/voOuQ6LfvJwu0HlvFAkao2C2/mffrDzQrzAAMB/y3BS+do/Pb7qJlsRpkOgpF78qXmYheBJdxxL9TYMO0QEAeW6+/CXNxuKqPjuZ//RhTItE/7NEDwkCnbhC56u/uvbhKy8xcwAA8tx8hV29Al25Le4CQYFOtTPuZrq9MoOJpK/QFfr3Vl6im3SIDgDIc/P5xZZe38F5drL4mbUVJbriFP0Op7+GrpAs0PlnP6860K94zBwAgDw3n6fXa6o7FZ+dxP8/e/f13sS19XF8u5tuS3CFS+wR9vMIUigDcQpkootT/UozckW466WJBFEcp2Gd3tuffCRYofiAmS1krS3p+0m/DeX3/Nbea89a8cBtWlx0twj0KL/chIauUNF5/RUAee6MruOpFllFl501/USXiq7f0J1+APbyVdMpAJDnbhg+lnJ/FV2+m+pSokugfxaroTfuDH0+il3Ref0VgA3yvPX1jHkOmU5oXYkTm5Yz96YGeuG6BHoLnKJ/njQdAAB57pL+s547xrvN6321XhRuLK/90qahy9paU95yFzntXfRr5wyATkCeu2Ro0nPG5FDjn3G3NGs1c5dAb84eunw+NZbSdsAhOgB75Hkr6zqcdnzmLhN3pzr6Zy8aerPeci/cWMyFcWW3AjbRAdgjz1ta91HPGVPdSkvotuvoP7No6PK1taYcoYtI+6NrmQ44RAdAnjund9xzRWrAvEby/4vCmYtxv7QJ9LnlQtOO0EVk+110NtEBkOetL+nQMfp00uK7LDqJbhHoIr/UiEP0G4vZULTAKvqFq6a9ASDPXZQ4nnJ25i533F1LdHlaJl5nzi0Wmjlxl4Ie8E10SwDI89bXPeI5YnLA/K9HxSabjRvos2EsjThELyzlLfJc/ROqMy4dogMgz1M6ea6gf8JzxPGE2evkd8Um25i1D3TbQ3T7gh7Gll31A1/ZRQ7RAfKcfq4gcSjtuWFsWOcdd9ur7s8C/WfxAj23+K6La4WCxRJ6bvX7wNd24ZwB4BLyvFMMj7j7DdXbxebbjNfQf5Zrwszd9gQ9V94JfHUzHxkA7YY8Z+huIXXI4supiokuL8vEDPTsOz7nXrC54l7+xiLP+T4LAPK87YbuKc8JR7sUnomzPkb/pQR6NmxKRbfZQS/Lwpq2zw0A8pw819A96jnhTK95RfLxelEr0WM85h7GIKvozbkRV/rBjTzPXLlkAJDn5LmGgUnPCUPmVTfXiyo239rQq2ajJlT0wvX4A/fSPfs852kZAOR5W+ma9pxwJGFesVZUshkj0H8WM9Cj7GKh/kRfykfx8/xFoHMrDgB5PtFZeS5633PxsTh591XD7FuffpVr7va76HYba3MWee4740MDgDynn+s4kXZvcU220F06RpdAt7sVF9X/zbXluTCenCP9XHyeMAD00c/V8AJs6rR52Z2ins39Pp9qdysujLIL9SR64cbyfKg/b+eDawDo5y1lyImKfqzLvJC8WVS0+dZAnw1jyy/aJ3rh+vJ8Ln4/9+1xKw4A/bwNdR3zHDDeY15IrhQ1ze63tSZPy8QV5ZduFOzPz8Oo1fq5uPyRAaCPfq6H9+LS/QrPylgeo78I9P8L48pFc0uFgl0/X5rTf0+Gt+IA0M9bT9cRzwGnXbgTJzb32VqL/0l0YZHosn8ed18tV83zwHcMX1AF9NHPO1ffGU/fSMIYkbyzXnQu0eUI3WJxTURR3HN0uQ6XjZ3nDwLfObwVpwsgzztbYtpTl3r5EP1mUdnG7P6B/kU+tJDLLyzHKumFaj2fy8X+/vlO4Lvn2lWjBwB53un6Jjx1kwN6n1qLUdFl4i7Ol6PQpqPn5mOM3QuFwlLseh7lVzMx8pxbcQA4P6ei6x2in/yu6Fqiy7MyYim4ZVfRw+hpSS/sH+fLC/kwFzfPt/zAd9LHRh8A+jmn6E5sop+6WxQuDd1/9lKe+w+loseWy80tXr9RePPZ+fXlhblcFMZUumV1HY7HXwHQz6noCs+5y7dTdW2+ceK+9KnvB1tZy0APw+zc4nLhRqHwv928GvRLC/n4cZ4r/+BgnouLSaMGAP0c/ZOetsk+I+SSu7LZ1xR0yfPAD3akolvIVSN9YWm52tNfcaOwvLQwlw+jMK5seTtGnvP4KwD6uQqei0sNGnG7KFwauv9U0M8Hfi1MLU/RRVTN9PnFpWW50l61vLS4MCflPPZ1uO8D310Xzhk9AOjnGNCv6NNGPCo6YfN1BV3y3A8y5dBelKv+lc3n5+bnF6rm5+fm8tlqzNso3fJdzvMM19xbH9BHP29lwyOetpFh88xa0bmKLgV96bz/U5oG90pRWJ/o6Z+5sJbuURTaiBw+PhczHxtFAOjnGEw5832W+0XnKvrPXlyH858JMlvZsOny+78mwzV3AJyfo2fKUzbZL1tr+oEuZl+54r4k43YRPCznwubKlW5lAt91FxMGAPN2+rme5PGUp2xQ59MsMSr6Z0/jXOq5CIKvS1HYRFFWPsbiuCvnjB4A9HMk+yY9ZdMJU/OVE4Eup+gycP/i/Kf+3jCVm+5NU9p6++12rrkDoJ+j66inbKTLlTV0sbH5LM8/+eS8//K4XQT+Vr5pHT0rt+HcN3PVaAJAP8dg2tN1ptvU3HYl0H98svvrX/7yl7/ereyez/hCI9Et6jnX3AFwvx09456uiX4nPp4qNn7z20pl97e/3a1UKr87779epimJHuUt6rm6mQ+NJgDsnyNxxNOVHjQ1j5yJ80q1m+9W/6r87lP/9YImJHr09HJ74LeMz40qAPRzDKQ9XYdNzZob0/ZqnIs3BrpM3Q84z0urNk+368tcSRpNAOjn6B5z4guqa45M21+ofPHmQA2Ce6WDfUrmXmCV5/quXDKKANDP9fER1ZFuJx6K2xPn1a7+5X6FNPi6nI0O7PDcdtquL3PtqjlwANhXG3Q4z/lCy5leCXRHpu2isvulv48g+H6rdEAvydz63jrO9fF5FoB+rp3n6J7yVKX7JdBdmbaL/QJdHo0rN/puXBRmy1sP64hz9tYAkOdIHvd0DZmqu+p32/eo/Pa8/2ZS0m81eO6eL2/tyOF5y9EOdADM2zGU8lQdkkB3Y9ouKvsGugiCna1SoyI9yuVbc9guPk8aAPro57wto+hIUjHQf9wzbY+ztbYn0sv5MGrA0Xlp9d47XIXje2sA6OdIHPNUjSYk0J2YtotKvED3gyB4eGu1lI3eKdOr5Xzr2zfN2tlbA0A/T8XKc5xIeZqmuo0x+tN2+4YugsD/ZqtcyoV1hXpUG7Wv/tDC5VxcINABbczb0Tepv7emEedvqOfiy/gJGwTB97+vZno+F0WWaZ6tdvN7O0GV39pmLl81AA4K78PFy3MMj3maJgaMMfqrantUYga6CKp2btVCPVur6tHbozzK5fKl1a2vM/ZhziI6APo5HHwsLjVojNGYtu/u68uMb6mWzNtf31otl0r5fC56FtuvhLv8ZxRm86Xy6tbvHzS/mrOIDqCvfc/PMZjyNJ02xjhTz4V8Dd1W8Mw3925tba2Wq8leyu9RKpWrUX7r3nbwlN82Mh8aAMro5+g742k6njDGqTiXd2XqJlGd+X5n58H2djXdxR+2t7cf7DysXYBTynI+oAqgb6yN8xzDo+rfW9O/2773kvt5/90E+/Hb0MWkAaCL+3BIHvE0jQwbo/+SjMXWmoXAD+SfkvHy323o4iUDQB/zdjbRFY13G7PuzrRdAt0yeHHtnAGgjDxHf9pTNNljzF1npu3iC8sqDb6IDrivZ6Td77ej56ynJ5Xuk0B3pZ7L19BhhZdlAOf1HE21ez/H8FFPUXqgKYEuD8MdUKBj5iMDwGndR9v/PhwSx1UDfVAC3Y1pu6yh+22FL6IDGD5CP+dW3AFLnTDmvivTdmEd6Jj50ABwWNd0ivPzTjAw6Sk6LIHuQj2Xgm6/tYYPkwaAs7oOpennHaH3rKdo2pjvXIrzym9/88dPAx9WMp8T6IC7EicmOyPPMTzlKTpqzJob03bJ8x+L9oGOiwkDwFHJoYkOuQ+HxIinaKTLrLlTz3d/s1GsI9BxLWEAuCnZf4Z+3imS056e1OiwualfzyXOn/xYrPqTdaDj2iUDwE19U/TzznHaUzTabW4eUD2vWJ+ebxRr/pyxDXRcOGcA8EAc/VzbkKdoqtfcXnemntcZ6Lhw1QBw0fCxTspz9KU9PeO95s66/ul5Nc43iuIvvm2g4/JHBoCDuo6nmLd3kt4JT8+ZfvPVXd16XpFp+0/+EtgGOi5/bAC4uLCWpp93lJ4pT8/EgHnc2EDfkHpuH+fir9Z5jhkCHXDR0AT9vLN0j+oG+qn7itP2Wpz/WHzF36wDHZkPDQDn9I3TzztM11FPT3rImPtq03a5C/fOgQ4CHeCCO++360sc8fSkBo1ZU5m2V70a5+Lv/7APdPD2K+Cc4SPM2zvPtKdo0JhHOp9JrezuOTyXQP+ndaBjhrdfAdckTqeZt3eew8oN/XZj4rw2ba/Y34Xb6191PBSHi5cMAL6kST/v6C+inzANWUTfkDi3vwu31x992LtCoANu6R3n/JxAb/4H0R+vN2Labn0X7g3+7Ac+bF05ZwA4pPso8/aONJTWDfRTd5txeB4jzmUNvcUDncfcAXQdTjFv56RFIdBPfndwq2oWh+fi362e5zzmDmBwkn7emYaUAz251qRVtRhxXt8ld1wm0AEO0OnnNHRzs4nT9j134RpzyR0zBDrgjuGj9HO+zqIU6LfXGz9ttz48F3/KBD6szXxkADgioXaATj8n0B/fbUY9l2+k7oNPs/B1lvoBTF3JcwI9efJuffW8oYfnvOTeFoEOoHeK/fPO1afd0JPf1VPPLV6Sqex9SKZN78TxdRYAXcfo53oYuZtHja/ntofn4j913YnDDIEOuCF5Ik0/10NDN3fsT88t43yjGM9f/BYOdBo6gL6z9HNNNPSv1otWbC63xzw8F38L6gp0fG4AsLFGnmvrm9QO9FP3bcft9X+FhSP0tg10AMnTafbPNfGwjEmsWC6r2R+ec4R+sC4aAPr6z9DPNfH0a9Uju+Nzuzi38Jc68xxXkgaAtuER+jkNXc8hU3Nn3T7P7TfP2UJv50AHkDidop93uMG0p2fQ1Jy6a7F9bnl4buHvTNwJdICBe+vmOU6k1AP95Hex+7n1tN3Cn+t9yB3XzhkA3HBn/1yZ5pAmNWgsDtE3Ys7bK7v203aW1gh0gCdl6Oct7rinJzVk5BDdNs8tNs8tltZaNNEJdAC979HPO15yWvNHdsBUxfzgmuyf203bLfzpe9/3WzHTCXQAXUfo51B9yX9CAj25YpHnVnFu4a++sM50XLhqAGgamiTPobq4ONFvnrkZ54K73aqa/cTdz1T5VRT11gp0AD1j5DlM95in571eaeiP14v724iR53XGufjTQz8jWirTCXQAicMp8hzJnrOennEJdHnO3f5CXCOm7eJvvp95geF7bAQ6wAo678PxbZaxnv+ydxfMjRtvGMA3zGQ5zFn/Gco81PHn6MQ9TmZyGSuXqqeCG+Y0a5SLX7X221TxxbK0jmSv5Xl+x0PHeebZfXeX3XrqZwOd4nzPfiTVz4p7JYp0FHWpQH+bAUCYZqEEQT9vL71cocUJdmsjIbuBHvxqOzkx49UwJSfpwzAFOgAu/BQl9jfo522jnyu0YAf65Lb7gnsjV9vJebyGD1DUvX2CQA8NwERcOcXTmWwul8tmMvQj9PP2oA1whYY1dktbf/CCu984J9dXcRct29PR0AEgMhDj8sppns0XrCIp5LNpIZDn7SEywhUaYbaNhNyCe/Cr7eQ0HjfjNiy+h6ahA0DP3+qL8xyluf2lkOUC98O1hcgiV2iUEY/L4r5LNXK1nVxcxk2Cnh62hg6AO+JideR5OktxXsnKpUU79HPoXOEKDbA76zULeu0F9/Js+5MgHOtx81Y8REUdDR0A+tbk85xn8hYV8wpW0cqnBfp5G+hZ5eofWyMbCfmJuCBX28m5afPs6dVTchD/mAG0OLyaKkQ6VyjeR4me4yL8/RzG/83V+XcfuzO5XedEHK22B+P6M5PUGep2pAMCHaDVL3EXguq5Y6IXMkKEPs9hgCv07152R9uRmIgLvp6TM1M364t03PmOQAdoBZ2L8nleKGe3M58VHefP8eLeWhersLXpWNBTqUbWc3JxZTpo9Sk5BDoAaGP/lt0+zxaKtRXSAv0cT7P48Z9OViH6WrKgU55TPQ/IqW7qPiJdUVFHoANA19+l89wqurAyolH9XGPNAd1rXKHFTlbphWRBp+X2J8G5uDRLdN2sLcSL7wh0AFwNJtI5q+iW6IWsQD8Pu75/c4WGJ1ilyU2Zgk55/u2TAJ0YepmplyDTEejhAdC17D/PiZUVyPOwG+QqDUUYcx+L+8Exz2n7PMiCrhOKc4lMx53vCPQQAVz6KkQ6757n1NCR5yEXGeYqDWiMuY7Ffem4gz77YjP4gm4zy1/8hToCvRkAoPtvcv08T+Pt8g0deR7SeQqFYmPsTdq69xn01N7sJAsy0S9+1O+hnu53Sg6B3mAAoI3KxLlXnpNC8ENxMczDKbgyUJXYv/vYPRsJ70viSnnOtBeJJ0E53tUduGe6+sV3BDoAdP9Hdr3dUyEt0M/DTZvnKq32snuirz1ucU/tzURZSeRZIvCCXsXUfYc6Ar1RACAyGlQ/t+hiGeR5qHUMc5VWuph7Rf+u+swa5bmd6MHvoAe3+K569B2BDoAddMpzCVZWCOR5uHX+h6u01MGqK7rrSNzeLOV5gIl+cakbhqG7cMl03PmOQFcGQJMZcffu56SQQZ5jC92X4QhzrejVI3GU57eiT4NI9FPjT7ob033xHQ+uItAB1J5B97HeTvJpgfvhQm6UKzWqMdeKfn8krjzfzoJN9Isr445uw5QcAj38AAWd8lyGlRPo5yE3scCVGmMONhI1V9wpz4NN9DPjDXowRV394jsCHQAFXbqf003u4c5z6FnlKsX6mIPoeo0Z9725KcYCTvTrK6OK7kbqznf1PR2BDoBn1gTPWXL9nFbcw53nMMaVWutmDrStTed3WSjPg030i3OD1Bnquu8pOQQ6ADT4HXTKc6vYhBl35DkOrfG/dzEn2lOHLfTU3twWY0En+smuUUV6Q13dg6sIdAAYj3kNxNnvpTZ3xn1V+TwczjCqf2vN9mrb4Zq4vWnmKLqT8HFkzUgmDRcei+94nM32SVMDHQA6Frz6eaZQlE30PBch7+cwFuNK/UNjzl4k7r+cmtqb0Zgjzcd59DMjSeQjHXe+1/Dh26yFAODQsSjluSSrmBPo51hx9yU2z2qIrFfNxM1EWS0PTvTjlxToPkJdyZQcAh0AOkYCOrBmz7iHup9D9ypXaq2P1TK5TYFedUGcs8iLzQcvuFcyHhzquPP9E/WBDoAzSlID7sHPuCPPseK+2s1q0TY27UC3D6C7eFCinydJvZluNGzxPayp/nlJMxs6AGijMfc8z9KAu6ScEMjz8I9UKLU0wWp7lrCX3OkAuoet7fon3L9KOnPL9NInl56u5toZ9Wkev7o8+2mSAUBrXCojZDfQiWVlwp7n0LvK1RrpYLVpOwn7ojjvPGfaq9d1XymTJPVnOoW6gcn3v365V+dnJzc3Rz9HWJMAQH/MawPdKkorpEW45+EgMsgVG9CYi+hOgh5PpX4uYXI9Ud8r6MndpAs/p9lMBXe+qyrnpW5+cnRT9suvDADUX9vtvoHu/hR6SPs5dC5ztWJ9zFX02W97qVKkz04xKZFnm0/kne0md0uJTp+rBDIlZ7b1lBz9Ej8rpfmN7fctBgAKzqz520Cna+LCnefQ/2+u1t96mDtt64u97+dmJpktuI300693S1zS3Hekm2b7PrhK5fwz6uaVmrONDgCRIa8NdKvY3BV3oT7PcQhdpcVO5k7TolvTUxqTN7kjWdJPXu7abnu6U7SrP83WkplOY3Dnp8c39/0cxX8sgD/YOw/lxu2kiYNhcyTxfRU2OPBPraoo55zja1yqcHlNR4koqbKc7Q1wzqYSQfkgkhJ33+84omgevRhAHGAI1F3/dhUfQF0909P/9Fo+BRfoRAITd9c0T5as7INInBZnNOIT7xxqk/7+tTcnBV1u1Ckfp/zgaiZH7XeqOdboAMyKc9InWZiJewJ6vra+sbl1XyomHZTnjUm9J06D8mu//1O0ni8uLY6ZGL4vaqTk4i7UB2THnC9f+5hG7YH8oL9GBwCULssv1nQm7s21lue12iTqBduaMaCwYFKmdszS4f/+/vqfIg7WFoMY+XRZSu6thvRxNkLBqGuZ84BR+0zX6ACAoxXBxRrDN/EfZnH39bw1kPTBp9b69ubWY7N06sC+WDUpM1ewtPj/v7we5c8Z3iS0UnJxF+qkp6lvzsmch4FrdAD0B6wRCXdCMePO6PkQEvX19e0ZGnWQv8ukzaWSpcc7b3/C5uGusXKunZJb1u98V4618+Z8vEa3LQCAJoV7DAufcFd7Cn2k5yM8ojWYvr/wmJUCaBlKg5OqVu6+Xz4IlPRPPqovLg2IEPSRqMtScqpGPRVR3++D+5DMeSQ//MsCAKT099s1zMBdbYXuGndSz8dGnTbqGNnNJFKRNrXzliL2U379RoCkX/94aUy4qLOk/+Aq2eVZz9qpQYYnC2t0AHBz7LrMwJ3nmy9NXD1ve60ARj59q2QBTWwqlUm/VkaR8vOOs+Tc+Oj6pJx/dG1pkpjD98abOifqryoYdbVZ+0yv0QEAR+ZCEnH8wF3jKXTS852xngf69PbG9lbO0gQGPXUu5yxFXnjRGSj6krNy48P3r38y5H2S8wAOoehZS8mNq9Rnk2vnZ+2zvUYHAJS35mUd7goTd9LzDul5GEOfXrQtoNb6mjrztqXIU3VnnyVnqX7txj7X6kuk8cGEajr9DzXq8Xx6/JScppzzuXYenVJ3AEA5v7mx3hWfoCvUxAXoOTd7z0PTNchfMumju0J/1BlDKj5Q9t4SL+iHTsnJF+oNTaOuJufM6jyFNToAoLS1vd5q7TZDDPq3PAo1ca7p7nqMoAdk5P5LR+8w6NVKUTXj/qLT6zl3QMouF/VF/ZScWpWcQhKOJ/m30QEA5eLmRpuEcSfEoPMDd42jNdc090Z6HsmBTU/4PB3kLxuThSt0RZ5adRynF6TpTjxNl1+zKS7UNYz6QM75JFwat2sAwJyTnHvtruBRFp6vjJtIoUw6Nh3Y52omfc6WVTPuv4p5sKbT8J1H6ZpN/8HVpDT95XhyTvz8jpUQAIDCgTkf4O2xAsyerPF8Qyv0GAH3cD1nE3J5KyFA4YpJn9p53Yl7b4Dv+D2fjHrg9N2JN3zXTMkt86g8uMq7cznvfZfI7RoAIEfm3BuNtr0d4wpL3JmjNamgswH36NH7xvYLiVg6UD5p0qdKRe56PNTvDXH8wb8BSQ/fScyzb9RTk3PiPVTAApDIrH2D5Lw1hCbu0k4Z/mhNHohriSCbvo0OOaVOghS4pLlFsZ/3e0PqPd93fJ/kvKeRkqP/Ohv1+A+u6g7bsUbXBwA7P5y1j4XT22uaJA26fIU+RSCOCcihQi42uTMmC1y0NSfut/yBiB9QrzsOiTrn02MadRL0TPp0EmfJoZpAznG7pgEA9mB1vm9nx3ittfANutrRGt/gLnbp7Y1NSHo8ztdMBqgcVZ24X/WH9AinTkad1Jwfvsc5UQ+VdKKRxWs2xp5fE8g5KmAVAMAubo9m7WO8dse4yUXcv6HeV+UFevgyfbNg6YKTNX0u5y097Af9/2A0ex/ijIbvspSc3KvHfnBVnpI7vDsXyDkqYHUAuDofJeEm8Habsg06w1efubqNMtGTd3HkHZRPVE0WOGVbejz2pD9BbxLpQj1c0NVP1JVTcuTOP+ZrZHC7BsAMKR85e6c7J7w1l382Vf1ojW+UkSOXdHD0XqNN+kdrL1yt132CF3WRTyeifDoR5tPlRj32g6tRL6oJ5BxrdBUA3Pn8wlqwnrc6JhgqiROt0EWCHn2Bru/SQem0yQS6R2sP9v06Ea7p/EJdbtSV32ZTS8nRA6kf3tQAt2sATB2FOzlnmCdJvd0ub9AZFHpfXdNlFugiRJIO7HNVkwnO5DQn7o/2iUlRZzWdE3W5T5dXyRHi5Ls8JUeXavwDqbhdA2CWFE7cw154e2xNHP/Mmkrvq3zgzko6Eu/TcmTBZILacdWJ+yP9EVFGnbrk2Co5eUpu3Pmun5KL/+DqMAunxc8YugNwePLnroQsqOlhFpd7Zk1ytPala0TIB+4sJOkKTg8Dd3XmipYiT/VX+0S4pgdUyemk5AJpHE7SG/oPuQyX53q8h9s1AA5L6fjlKrOgDq+Jcz8TGXQ6WlMYuMugu3S823Jo7ItVo0D2auL6BKvpk6Lu16l0RsWnj3fqGim5t+In30fT9puR4HZNHwByxy7VDMFeeFNNHH+zptD7qjRw56tmUAh7SOxsJNyJc7oPs/QniVqo152RT5d1vuun5BpaPp2m7YLlOW7XFAC4VDtVibgI87y16NZX9RW6m8jAne94L1jRgMJlkxEqRd2auD4xjajX66TqvZ7PRN/jPrhK/7OYkntVMG3Hu2saAEDR9qiLMK/dkd2s8St0V/1NFsFZesmKAOTmqyYjnC6pHq2t0g6dISIkR5XvSg+uRnbJadTOELyeLwum7Xh3TQWA5fkVM4LTS/5ojSJxM1yh8x3uSQXeI+buwD5eMRmhetHSw37s0dV9+uE+nZu++4opuZGcyzS9Iet8JwLlXGPazvDDaxYAgKV89HRtrJfsgpqO1qIjccordHe44deljbl7OEfnTFaYO6JbE7f6K9E+PaDzvc77dKWUnHz4Lk/JPc5M21V4D4VxAPAUzt5rxvB6SUdrfCROYYXOJ+J08TB3z/4CXT/jTjy1skpEaLofkpLbX6gTGim50TVbugv1x1+9ptUkw9yuYYLGATBtv3tCL8PePOlIatz5IvcvjKvwyBrm7tqUTpnscNxSPVpb/S19gagTY01PPCVHxF+oy4fvKvYchXECALLtZ2p8gpx/aY2fuCuv0JvDDb86lHfPWwGA8sWayQwLRdWjtVurQfQZ2BP1EX7P53y6E69KbjFM0wk1o76sVvTK8l7A7RoAIH9izkwQliBnVujSifs3khW6yskaXx13p0kH9vmKyQ5ncrpHa6sMkpQcQe2wBP/gqvyajdB6cHU5WNTJnr9/c/agMO5OAMJwl6pMgpxZoXMTd+0VOrMRQDguBY4umOyg+3Kq/eDKysoqR58jzKfX/Z4/7nwXPrgqv1JvJNv5/qrgVk2jMA4AkD95L9+pyl6h8++y6Be58xsBvXDcpAMExbtMhrhbdS3y2C2Sc0bTRSk5Qee7wKgvqlTJBQzfBdtzhcI4AED52OXpTry9dpOZuH87oxW6q7ZB5yV90qSD/CWTJc6WVVfov6wQvKbLT9R9Z1wl10u6H3Yk6doLdUG4HUN3BQDIj2/VxvAGnV+h08Rd/wqdL7GDSZ8lpTMmS1SOWpo8dXWFCNd0QqDpk1VynE935FVyigv1oai/RfY8Nd7D0P0AAOyjlwI72MLk0ltzwzPu6iv0kUGHSUfj65BLJd2jtZUxEcP3PkfoQy4Huq7W+U7onKgvL1M1XJr8jMK4fQAoXZybuiTdY67QpRn3b780bsY26F4Awwu2/Zt0kDtZM5ninKV7tLYyAel5Yik55kI94ZTcm4TCg6vLb31K9jxVBq+0AADsI6eDfRa/QeffQhf1uBPffOG6GTLoB+rdnmT0+/Z23gLlcxnT87mipdv7ujJJsgv13pjoKjl55/uigk9vCI7V8EqLAgDkjt9jgnAj9HK3mejE/evP3UzcoI8ke3d3b21np9PtNg/odjudnbW9vd32/k36lgU9r5hscSqnu0K/vTIJ79OltTOBmq5xor6YaO0MpeHSB6+0AFA4VREMtJmXWYQvpxJffaZg0KVivjZQ8qZrfgv9ZqDsnbWBqmcuGwc9rxyzNCk/PxR0TtQVNJ0IDb5novO9QeP2DICn0QHScJdDXj0J7U3bCdx5u18KBf3L6Z9ZS9qgj8S8Gzr8d+mjOTDr2crGQc+rl0uW7hX6bYKV9AGyhToRtVDnT9TjXLMlMn1fTH3cTmDoDkDu3JzwWVKv3REfrTErdDMd/LuuYnPe3tsZGnPXRNNsXjoCPc8Q1XOWKg9dvX1AqE8XiHpdPyWn9uBqg9LtWQCvtACM22u8Xq554YLeDK2J06+V6bST1fPW7lqnadxpZgQLx3PQ8yy9y6LKg7cJXtP1U3JqD66G0giDxu0ZAk+jA4zbAwm7WeOfWqOjNf1aGf5IXsbQnJM3d81U1Obz0POsMF/WnWY9f3uSCKO+yiK9ZtPqfH9TbtTfVCqTkT+Nblv/mwCk2+di3Hh7ay5ztCY7Q5+6Vqa76yVnzttkzgVUq6eP2NDzrLTEqXIfrdCn0PRV+hAP3wWd7zGr5CRGfTEj43YM3QG6XisxNtSetxN8tPbVtzK+dN2UbtY8r73WHZpzCVfOl6HnWeB0biYr9Ck0XaXz3Xd8nx2+L8VLyQ10fSpNv/bRzQyAoTsARaZMhq9x5zNx8a/Qv5k6E9dMKBJHw/aOa+RUK/9m79x627iyLExd7CS+i5x58m0kUg4gC2gDowe9tP5RCxhg0iPAj6EQZDANq2xL0SQBItlu0RF0sQWJRetqaeyZyb9qcql0wEoVUzxbp07xFNdHN+X4qaGXD3ufvde+O0Kf5/twKvhTfW+vXu8odVsr6rPvZudaUofSRetsxqbkcCo1azjpTkjpi0fSAljlxJl9Qn/h2R+JQ7cdOvcupZLrg/R55twfLKRK6V/rLfb29J1u+uDq3Oy7Ddg8rdgZ/C/J6d/0yDgcm+6EGV+jyQXwmmQmTriFvvyDnlM9xNIa8Pn7zRW5zhX3rtDnud5ZwxN6/Zw9SaEOsRvMfJ99F9CxUL9cnZ58nK03ts/ZdCdk8NpYGUg77siJM7mFjsss1lPimt327bIRHn1Ros8z5VHaKT9P1usAwOkaSjd7cNVK5juc3oleGYfjpDshQzcrlx05q62tlj2DT+j/rXmZxYt03EWv563y3AyjmW6k0+eVa2mPJk779RB78ua7wYOrIOHgKr5lUu8o9Nme8Dmb7oRcuVcRpLBFgl/FQe7yWJn41Bv56/k2uu1mGLs2Qp/nNVQGW+i+r5SupF4XFeophL5vvIuuqEedLpB6/IP633pjHI5Nd8JxuIdd+DK5ox035O5Zm4lbeX95n68KXs8Fo3H0ueuhMmAKT+gRp++JpuTkzXf5irrBzPf/6Amfs+lOSPHLcRMz5Bhyl99Cl59ai+TMy9vtnkGdgxtD9HlGjKY9lViaWQ8qdD8q9dhCHUjrdEGW3MbsxlykTjc2JRc6uIp1tV5mvi+a7oQM3B3rMrUFaA6525uJE3fc1XT7FnxulvtX6fMcHkIH0w0fwOZK6b0xJfcuVKgHdXoqme8Qek+sq7HpTsjIrYluD5klGHFnxWCsDE6tWeu4w+d4PjfOwy9K9HneUl9B6c++oh7bfJfFzhg/uNqs0zUOrgq6772xfs6mOyGD1yeMCBNJ7hmeWhN33NXO3XZas1kZ5MDS55WbqRfoU7t+iLoPp5uYkmv9Se3gqqBQ/+YPpd4rPuekO+G6mhlhIsk9y1Nr3urlfe6lVCveLtLnthlN/6ljZt1vNPzWRyk9vvmObTbNB/W0Dq5umD+4+m89ESfDpjshw/cMHj7JVujvaxbqc2my+wB9bpl0C3TwpOo3aYSl3nlKzmbm+0ZioW4w870nfM5Md0Ku3BdUwFqnWTxv0cpMnIqxk7+fp8jEtQH6PEcv6KD0J9j8XOp+ROq+ZEpOUKgLNtSBqtP1VtSdrc/Bz38p5BVCrjwqdw2C3AWnWewMueNUe0/6HFQmvh6hz/Pzgg6KHxrwOTwOp6v/qMfX6fI7Lk8NHlxVzEma78DF+hzMs+lO+uu6mnwm7r3pIXfPUkxc7f1W+oa5PkKf5+YFHUytN85pq9PxUyGYfLe1zQZaS+qXfFD/63/1gs/ZdCfki3EdYW6/TRR6rIAhdFlOnKWlNbwVeOW0sWN0+hzcLBYszMQ1qo2q3/qoV/TolFy8020dXFVST4ySeyfZZsN8u1v88u8FQvra52BrLXENPX5rzc5MnPQJHRH06dscNfogfZ6PkDhQmt5vCR1Ob/5pgMiUXNB2x18jTs9+Sq7578kHVztbfQ4+d4sf/6lASP767Y/LOniba5I1dPmQ+5Je0by5JgT57VaMbisGlj6vIMU9ZUoHgcShdFi8AZv/fkiuHtt8B/ab72an5JzzOZruBUL6uT4Hq5a31ha1XtDxhC4diIPPc2F0+hyMo0BPPVamGvg8cHq16jeqLYuH6vRG2Ol+2lFy0tiZOfWg3vXB1TncY3EINt0J63PglXdqIqGLT7O8tLGFrpbtcmJ0+hzgDnraTK5XmyipV1tKh91DU3Khdba6bzjz3fyD+oZGlBx87iA/9U3TnbA+lw+dbZncWlt+YeUJHQ/o+TI6ff7Ixi+5NHNYDWgJPRC7jw+U7gc2x49wlFy0ThdOyX3bGWHme7NM73JK7ptZ+NxB5vOUAEtICT4XCN3iGvryc89CkHutdVDGrtEH6fOUqdwu2GC62o6q089f1GF19aB+bveGknrvHlydnU0q1FWU3Oz3C87Bpjuhz8G2ROhYQ7cy5L5Zqwkb7lGfcx/dWZ+D+4MFC5T+vL8fVroq1KtBoR6eksMP6Yr6U3tTcrOtQn0D83Gdp+SaXv9+fsE5eHaNsN8OulhDNyn05SUtoa+s1oQT7l7ZNukanT4fu2PnF7G7vw+lR6Xuo1C/2FFXD+pq9D20zWYmdkZ8cDXO6ZB6Uua7UwFxPLtGOA8X7WkLguJe/GAjyV0YK1N7rxruOajR6XNww86vd3J9P+D3TofM/VaxjuZ7ZEousU4X5cM+Nfygrohtvv/12XcLDjP/Sz8lwBLW5wKh76yYzJXRCn71VoQzcWi426Zya4A+dzn0FTxRQo8v1FsNd1Wlq2226HG2eqcpOXyZPLgqP+QSab47sIDOpjvh+7n5oDjhGvryy/Rn4jARZwGLt9fo88rX+N3ayIkLE5X6hdmr0Sk56F1+cNXAlJxgRR1/BVhAd5tf+rbpTuhzTJ0l2XHVTK6MIMkdt9pdmIhTt9fuFunzdHhoaS+weLAfpRodfEfzHToP6vRQ8z1cqfu9u6KuQt+hdGcH3JkAS9hvB1tSoVsZcl8VCX3Hy6wvfLtIn6fBxG1LrdSpD/uxVMOEouQw/h4+zhZWevyUXF1/Sg5fRuv0jVk1+D43958uDLgzAZZwHk5eoa/FCd3zXtpIckeMnaRAz4zxOyX63DyVe7YGDifXj472QYLUQ1FywZN6NPMduJH5PjfnxkAcl9EJ63N5hR6b/OpJk1+XUh9yr2VWoIPxq/S5ecas/VZnjo9aJCsdqCg5/CWc+R58upiS2zM7JSeT+tyGAw/oTIAlfD+XV+jApNCXsbUmSL1x4AU94NEV+tzNiTgwfXIEupU6fI5ROXx83FyNHlwNPaj7qa+od7J6nNIvpO7MAzoTYAl9Lm+5b8UKfUk65O5JUm8cGHFX3B+iz50LcVccHB4BPaej544f0DnqdDUeFzi9HqnTI713C7EzG52m5DYcf0Bn053Q52i5C16kvefCKPcXgq01Ey/oDse60+cTXxZsUfpwdHionA66bL43Cap1uD00JBcbO2NE6sa22d7hAT0ncBm9P6HPEZYuEKS4QtcU+lpNEBKXfYN4hD43yU1rv8/S1G7L5xGld12oY51NHXJpwOp+xym5ujwf1uw22+zGUzyg54N5JsD2J/Q5nCm6zbJk5zSL4Gxq2cu8ovyqSJ+bY9ziVMLM+mGLoyMldcGDuh/ccWl9qRW28DpbveNxNtnBVVGhDgKj4yRLbviRCbCk3+bbVVfb4rE1vdMs3qqg477dC0PZX5boc1NM3LX4y3xyfHjB0WUK9Yveu4//aGu7NyJH1OMPuViJktuA1FsF+rOsT7JwGZ2QK4/Kjgm9nKbQEYPjlbOnMnrVNZ9zBR1MH54cKo6iUtet09F8j9bpjd9ZXcPpT1PYZsu+4c65OEKuyn2u2E4U+opBoS96WkLfqTm2s6Z4MEyfu7jYf3By0jS6kjqsLpySa33Ug3pL6iAyJQelxzvd1pTcRuYba1xGJ+TKg7IG0lVvk0JfXtSy7QqELh+J46i7+z63G49f/HAC2o0unpIL2u7BmjrK9IYfmZIze3AVPteNktvIwYQ7l9EJ++0IY7NYoePWWppBcei45yMLhT4H1hruYGr3RBFWenSbTetBHT+CBrxyupK64OCqwcn32W/RcM8ZvIxOnOLqg7IJPKsV+guB0J1aQldUJm4X6XPXknQn109AvNRFhXpDvajjNR16D2W+h5yOT/eZ709NZL67HynDZXTC+hx4uH9iq0L/QVPob2tudtzB6Bf0uTsNd1B6AqF3VjqcLpiSU213/NVvq9OV1JXRVZ2e7jab8vm3f3Oq4c7L6ITzcPILpXCkMaE/T1PoOPXaQzwaps8vyQ3LET3TH08iqCk5VadLpQ6CcbngTT3YTQ9+RKPk0st8BxC66xNxvIxOOA+n2LQvdPkEviR33lkd0eePbR+6OTg+URhvvl/cTw8uqfsqSg4luuq+W56Sc3UFncvohPW5ICrOpNCXymkKHe/9vUTlWpE+vwQTtvN5ih+OW2g4XTAlF4gduTOwervTG0mZ71C6yYOreVhB5zI64Tycsqa9Cn0xXaHj0FovMXanRJ+LqVy3vSgwtXsMDDodxAy+n1tdZb63HWeLrLPhK7UpuWfzC7nlp2IhjxDOw8lHyZ0ROnLce4x/GabPxTywfod2EkLXcbp8Sk5ts/n4XzDzHh2S+4MpOfnB1fwX6IBHWvoL9tuR3mKvQn/ppSr0t1v5meqiz+1vCZRm1o9BstRPLr+irur0C6VXG0DFw3ZzcFV/Sg5fiqd5WVnjkRbC+hys1mp2KvRlgdAdXVpTTFwboM9FVDI4Wffk4zFIUDqIRMkJp+RU7AyW2dR8XIeDq77hg6v1fBTonIsjrM+BhzF3KxU6cmXSFPqOV+45xu7Q5670NorTHyNGB909qAun5KrBmFwTlOkdo+Rgc/wwts2WlwKdc3GE83BKm7Yq9BSFDlZ7sdB8MEyfu7LEf/Dx+GO8009SnHxvtBXq53V66OBqt5nvdf3YmdwU6DzSQlifq6k4SYW+lHpQHITu7ha64uYAfa7NWCYxex9gcz2pH0an5OSZ7z5K9osoOfzBJ+L0uuSIeoS93BTonIsjfD8HnrdT089yL4uE/jzVCj1yud3VUHf6fAIP6LYp7n485xhfcXT5oC6UegOL6fgE2TMXPofTI0fUI813vSm5b313C3TOxRHW54KsuNpbcxX6UqpCRy+BB0Zc9zm4mclywGQg9EDnGnW6wYOrcLlaZmvRPvTekOfD9mOBjrm4UoH0DfQ5vGmnQofQU8pyx0xcPua76POM5g5m1j+2cxwt1C1sszUCgsB3fFShjkrdWOb7Xr4KdM7FEfocm+j6FXp5UZT8mp7QcZnFYwM5Dz4fz+IBHbfWTk9PP4bQeFA3mfkOofuN8/f0cOa7CpSrK6lLD666meLOuThCn8sPrpkT+vKSZ3JcL8Jm7454XaXPu2fidkZN0umz03NCSm9yiW22bgv1avzFVb+KOl2tqEe22VCh4xNReuKUXL4KdM7FEfocbKES7lShbxur0BcFQnc6J05xb5A+75bKrazWAv7ntA0zzXcgOriKt/TWDz8444J/aeFHYmfq+g/qe5kV6LyjSsiwfP9cLs54oQPvpaBC1xW6pyf0bcdjz+hzcGOwkA2lg9MQvdF8x5d6T2/go6SeHCW313mdLZs76MyLI2ToXjlFvFU7Qn+pK/SdmtaQO4PJZT7nQByY+nB6enYapgem5NQSGz54VFcP6qr7rp/5/rTx3YJ9OBdHSCldn6PnrtPJhtCX0xf6ympNc8idTXeZz7njB6GfNUly+rFwQx1043QQHyWHKv2iVFd1uuzgKlJf+4WfuLrWL7A+R8+9J4XuaQl9taeFXrlbos+TGc3wgvzk7hk4jRJxekjqdg6uok5XhbqvMt/Vj+Qoub16W4GexUgc5+IIGU7b55hz1wtU9V4sp3ubBWzKhc7S00WfT9zNcNZgcv0MxFtd/qCeMCUnWFH3IXfspzd/xmXJJWe+OzkSx7k4wvpcni0DoW/GC/0HC0LfWqt1L/RN18+H0eeVrzPMvS/NfDoDUaUbb76jUD8SOh1fKkqurfke/PijQh06h9e/X+gnfu6LuTjC93OVLWNB6M89ydt+rUk3Qt/q+fVq+lyQ+GqPJ0roitOI1yNOFx5ykWe+N1qct+DbrB46uJqc+b7n7Egc5+II63N5nnst/iip99yG0Md/ff361au3kLprt9aiPBymz/+Qe0OFDClNN4X++QxoFOpZHVzFO7pSOkSuMSXnP5tf6CvmOReXO/h+LhiLq9VMCX1ZW+jew+Ficervb978+vrV+f+XmoO5MorK9SJ9buEEupSDz00kTteVupmDq9HQd0zHxWXJ1SNSx521vuLnvxT6BEKfe51L9A5CLy+lez0VjF652CgamoHV0X+3kCtj/8g3ff74ail7oYOzz7FST4qdOb5MoX4kzHzHd1Cn4x9ChXokS+6i5/7su4U+Y74/5uII++1g+31Na79bX+jL+kKvhAxYVFKPzZVRQndxGZ0+H79TyJgPnxVnQKdQh87ldToKdbHT8a1OsymPqzo9GjuT0yV0rq4R1ufAw+ZarNDjE9jSrtBBZI5sqin1V2s1SN09oVfu0ucdGPsy6zfOqTahd26+w+t6me9AO0pOY0Udn5bSgzq92p75Hr2i7vvouPcdP/5zgeQe1ufAQ4muE6m6mHKFDm5FX51LxaG//4o63UGhP+7wTEyf3y4WMmZq9xNEnix10GOZ7wD76cH99NAem3J6UKGj4953cHXNbehzeYmebMpF7WSZJX2h38BectTpI2+U052IcldcH6DPe/NifGly91OLiNM/xxbqyVFy4m02+cHVRhVOP/+DKLlzsatC/Zx6Nb8dd66uEfbb1Su6znUWG0J/ONLRWENvXr9qn3uPCt2ZIy30+a2RQubMrH8C8XW6bqGuU6dHrR5fpydnviupXwS/q3W28IO6yx13RroT1ufyEj1DoWPMvTNF1XoPVejMi4PPGRCnR+l/A6F3qNN1h+Sg82y22ZD8jlIdTleRsI3gk+eOO+fiCOtztYuuFeauafRlgdDHEkafJ9+8fhso3RGhT1gY/hpwrD6/OVjoAZ7836ff0dWDesTrpg+uCqbksJyuNtSjB1fdTpVhpDthfS6Pi+uU/WqjQq98VQAJZXqt5kSFDh4MsT4PUYHPs+f/f2vRWenCFXV55rtoSi56nA21Onx+kTuz//1CnzLPEr0PYH0OvE6J7pvSqDh5ha64OZDsrxl03l0R+sRX8hKdPk+R6d8C9Op0kGKdjgd14ZQcgN2rfludfvjdQr/yC1fX+gD6HHg4hpJ0l1Se/bpU1hf6/cECSOy8o+XuBILVNfrcAge/ARASunBKztA2m4EpuXCl7jfc77hzdY3wvppwLq62Ey907WSZRYHQx7q039Sb16NlR7hVpM8V1+HzXhN6cp0OXMl8b35fnFBvffLdcefqGmF9DrzYubja+1ihl1MXOug6EHRg+Nbjf7B3HkpuI0cYHnBzJoCKCtSRA56qIOdcyW/kp7hcyQffJue8kLMvB+W6onkSucoP5G1xrOOaQ4HonsMOC/93dQ+g+OnH/N2t54LukpKDfO6YyAi9hNS5I+q33Y+oF++SM1U5+u/Nt2vMLyPlPwB9OBdkmeWju/11Osv2KhH6tpqZeHG7reu9XQb9djbRp3etjAudnF4s9TvuW3Jip3/yZfP946qG1jC6BkBjUxMefHQvGkTfO6xC6BfKyC9a3pgHoXWWkc+f4ZHP1ffsQrfkdFZL7rbDlhzH6cSo+P5ZRU/ouLoGQGMr0XJkH93zmS6NZ7tyobuvkAUrm6n2HNPdx/f2CwvKH4JP+/27RLHU53zne1VP6IjoAD7XZ8xk0z0XDKLLhZ42VTnC1dZcHEZHPvfJ53Sbpf+MYqW7asndlLfkbjCC+mc1eELH1TWAfD4i+//1MnluFbr+2UEVQtfrkSpJY73rfRcs8Ov9HD5X3/trn7BLXd6Skx9ctTqdMaJ+ryZP6BhdA8jn9NHdPKM7H0TfZwn9YqjKEi9vpbWL6MjnMkISekmny3e+ExVPs9XlCR2jawD53CyMy08Pov9OOLfG3xSnkw5nyCtcfblmN1qQz4X8mITOcbr84KrV6fyd7wVSf+vtuvNaTa6uAficyP5JxbjCuTW953iXu51kR3FYvOy14NIV5HO/+M+E0PuSlhzj4CpNs7FbcrM+qH9y/U0I/Vd1iOgA39vtxTiaW5MLnZXQia2Ip7hmqwZFd+Rzdwl90Ldx12FL7k7Rg/pUqTM+vtulXqMndGyXAcjnphh3NS86oJpluz8/rCCh60sLiseCzyG9s4J87hPxt4b9/mBAUmcH9R7r4Ort2Vpyt27O+PH9tNInpP7T1+FzjK7VCORznZmqO2duzX1CT5vs3Lp6qRZFd+RzB3wxHOncrnT+g7qFO+yP7/IR9VePoXMcRq8HyOf2qnt+9Hu70A8Yb+gMNiLFZXEz9X9dHPK5Hwl9MMIS1IVSL3lwlTA5nVF9Lzq4ik4cDqPXBORzu9Fz0b01udCvNBSb8Hxbe8pGhHzuET8yQjdOFwV14cHVgqB+axozHVxFJw6H0UFtfG43+rtO5tYOmEJPm5L4utLSftJeQj73iM/vnzDu9L4wpzMe1J2vnZlsyY06ceBXNdguA/C93W70aedZyr2hc4XOz7J+f3bfjpDP/eHag/tG6RUH9Uof1NGJQ0SvBcjndqO7PM/CFvpLMgmE6346r7uIfO5VQicmcrqoJdeTt+T402y2oP7q8Wtwudkuo0BNQD43Rj+ZXsvt29xZNXeu0JNVYYpd7WoPSddi5HO/ErpN6oO+UfskFR1cJUodXCWmHFxFJ65+C2AB8rmZXiOjS7e5y4WuNyMlY7mlPeTlBeRzT4VOFH98r/rg6k3xwdU67onDdhkAnxOZ2QJL29zlNffDw3e4Qu8uKSGLF3yM6KvI5x4JnZjmdPfTbORzzs532SEXdOKwXQbU5Xu7xej6n+8e5Uf5VRfb3PlCT9Zi+c906qHhQuRzT4ivDU+Y5nQD5XR+UO9Zd76XDOompzOd/uo9dOIQ0UEt87nhd+8d5fnVKctfKxK6bjWUlHA79XD/K/K5L5DQjdLtUrdPs8kf1AmG01k5/QZupyKig3rmcwNV42j5ayZuxR3usoWeNpWY4Lx/AtwI4HNfEvqD4XMeDF8s9YFzqVfx8Z28jpI7FsCCWuVz+znV32sbJVtxfKHrzcCB0Vfb2i+S9qJi8r01+Nx1QieNDw02pX/FLTnOwdWyLbmvpuSOiA5AOC8+1/pfv3/Pwa64wz2+0NvLSk7kndH1muIR/OXdf+oMPnf6hk6MKb2oJUf/u23JWaxeeHC11Cq5G6dK7uAXjrbLABBeTvTc8Lt//k5bKNmK28vOeK1a7J3RWw2mz4/yd/81P0Zvkc/9T+gGe05335Jj7Xwn+Dn9lNDBa64WwAL4PNXzAokjcbArbj+reK2a/xk9bXJ9nltmCX2ltaR8J772cGgw4Xwipw8qaskVK53bfL+OqTXGAlgAPO1c82ltJvJdcfs6q3itmv8ZfTPg+fzohH/A5+649vCEocH68Z3RkpNdUXffkoPQEdGBUvD50koqXy1D91Ola9XkGb2jfaKzxPZ5fvVf8Lkrgk8fjhjapS4fURc33+WHXG7iNIv7BbAABJfnzedqoS1fLXMgEXqyo5wQ+TW9lqyzfE48++ieweduhU4UON1hS+5u6Zac6ODqxNQaQEQH9cvnSoUX5I/oB+9k4v6YnOB8qj3iYoPlcyI/+gd87ohoTOiWoD5rTq+kJcfO6dePIXBEdIB8rlS8bT+4dsBY5s4j3VFuCLz691S6osrwvec+N3dtM/jc3Ru63enylpz847u8JUcZfXIMHfwyVnwACOfP50QzFR9cI6F7ENFVuJFof9iIePmccPXRHT6PJ4VesiV3Oqj3B2c6om4P6r0JoYPXfoWIDmqWz4nFrvwRfTeTPKInO8oRjU3tD90FZj63f3SHz9kJ3Y4tpxePqMtyOsHYJDe5dua01G9jDN1idER0ULN8TgQXbUIv94i+p/2I6GrxovaGdIebz03TPYPPXST0R8TDRw9tcHN6FR/fS7Tk7lmEDn71EwVAzXyu4nXxI7pU6Mn5WDli6SXtDZsh1+fEe/C5E66NfG4RuqUkV6Yl13e8873Hb8lhDB1nVAF8PmJFi9e57wvT5KUF5Ypm26NRdL7PqRcHnztJ6I8fP35EFOR0i9MtLbkxpYuDun3rDKclh2voiOgAPh+xeMX6zX3vkLFZhkmyHSlHxB4Nr53n+pzI36VeHHwu5UTohC2nFzudDq7eP9ODq0RRSW6a0PGKjjOqoG4+V8GmFmx/lW+WIdruJBH4U3W/GPJ9Tr045HM3Cd3waDap26fZiMGk0t1Ps5HRe6Vy+s17EDrOqAL43LCWSAbX5HNrxFagHBE3LmhPaK8wfU7kdHYNPneQ0B89Nox/fCecteQGzltyvV6Jababx3ahg18gooO6+Vwtd6SDa4e7UqF3moqB78W49Yjtc4rov8/gczHmDf1xcVDn73wXt+R6pHR2S+76aPMrQEQH8HkcXpJ+c5cLPXE3uqbiZmdO1r/GFp87HV2Dz9XnT/7ncUZOn/z4fvYP6hanQ+iI6AA+N0QbWnpxbS8TG30tVq6ItrUfdJa5+dwcaYHPXQmdKJHTravkiOKd7+yczt/5/haEjogO4HNDM7EafY8/t8ag61AW3jyjb/PzuXylO3xOXHtCjHn8S6dPSJ2x872CllyR029D6IjoAD63D66xvrlTzd39HhY+S11feu7sfE7k78Hn8oROjEu9mpZc36nUX9iSm77KHbyGiA5q5nMVbE775n7IPKDKIEl3YuWKeCf1+Ju7fX+7PaLD50J+9NT4fCKoMz6+k9QLnF7pwVVjdGx+RUQH8Plzziey3TLyuTXiikNjhFvaC87H/HwufUWHz4kvxoVO2F/UX5zUGQdXK9z5jtss8ogOQLA+9z43LHWE+9wP6d6amK1QzcB/2TuXrjbONI+XuGODQVWnV/iGqiDniF5k4fV8o971V2BmXQKBGLtPIJkgegE6ZpeT3ZDBziTd2OYipMhgHC4zky8xeiUjE1RPqZ7nLVSp0v8n06eXrd789H/e50JDPyNEhfMoFcTnMXhFnx004i50j9o760E9+i45oviundAR0QFITWUS4nMj/ZDa516Qn2fhk8Ci+/SAr89jE9HnhoyY8uXhvhd08V1J/S23S+6TynnFd+nB1dtG/y8IHREdwOctzFFbekOVbnPn48wkrujuTGj4XLFR+kP4fNgyYsruUbm8743fONtb3jibfESdglF817yeiogOgJkUn9PL4tT6V3mbe/Sd7n+Iovt4SsvnxeKaC5/r8C9Hx+V9kdPfEAQ5uMoI6voHV3+E0BHRAfL5Z9KPbO/1r/I2dxGOWpaaqLtrc/2M+XMioruR+9yIL/1H5ePjsnJ6ObjTm1KX53RuUJdPsyGhB4jofzIA6CGfG9Y9m98WRy9/lZORu4PuDIgSZ5ifz+mja8jnXKxnR2XF8XEnpys8HtQ502wKWukN6JwuL75D6IjoAD4PUHO38ysFSVecnNkBIzSGM3b0PLAY+Zy4i458LufZ0cFBU+l19oME9bfyg6t0l9xdrpKD0PGKDuDzm/R519yDb4tboh7R+c/oyTqN/jgtz+fNiL6FfC7HMo8OGpQVdPG9ge4qOcbamTAPubyC0BHRAfrhOtXcFUuyrjg52RCf0QeiP6TqTA/x8zl3/yt8TpP67uAT5SaNoM4ovt/hwdWfwlklh4SOiA6QzwPU3G01uSbaFScnMxLiT6/sH2xwje9z+RVV1NsV5nfl8kGL8uegLsrp7zqPqO9xptnqaI2oI6EjogP4nOwgkx9RXQxNOjNDBh/6JSFinPGUTj5XNfc1F/lcjPl9Q+QHLRg5XYlcNs0WdpccLXUkdER0AJ+3D3nZ1HIZ4WoZOY/7jbAYcaJfmtrHz+d0WxzyOVvohwcNbgd15fSyv9TpLjlC69EcXP2pF4SOu+gAPncIn1MXR+U31wr0Izqfsb4Eja5lh7R8rtiyXeRzKTuHik8iP1AE7ZJ7t9+9g6uvNFbJIaEjogPkc/qGKv2KLl8tw8G5n0rQ6Nqo2Of6C93hc0sJXdHS+E2lKxpBveODuqxLbi9wl5zK6f9kNr7/iISOiN47wOePGLvRrRFH7xWdPrjGJzvKNzr9OyVixkzp+3mr5l5CvV3M68MbUDn9+E6n2W4KPuRVckjoiOgA+dyD/jkioi8UpKtl5GQmzMRE9Nl+fj6nt8Uhn/Owvqwc3lI60SXHeVDnT7Pt3d3BVQgdER0gn9/C/IIQup0XT6LLmZ4MySfpyCN6ZljL54ptF/lcym718BZEl1xjlZx8RF3eJaf5oI6EHojnptErAORzOsu6aqO7dBJdzsywlZSIPqHr8+LGKvK5/H7qYRtEk1xr5/t+OYKDq+JVcphDR0QHyOf0yTX66Jr8EZ3N3FBSXtHHU1o+V2zaLnwu489Hh5XKoQdEl9wxPaIe7s73PQ+nS3a+/4DzqYjoAPm8jSlbIe6LWwpZOrODRihMZu1oedLP9Tnd5w6f88+tKZ+rP8rqZXqajXa6QvPgqiKMg6uBhA5e/NUAPQLyuWJghoroC8vyR3R9o8d9Fj3zDdfndJ87fM5f5l5RkFI/aEJMs7EPrjK65ALufO9Ye/8hiNDB/HPLAL0C8rm6Tmbr9MUVFt3wjZ6EdXGrL/k+559cQz8cgRJ6y+mHnhDFd/nBVWqXHOV0BffgqgIJncFXiOiggZncfE73j/GL7vTgWrRG73tsR4q7XVzXpLjmIp8L+b7SgJPTbwV1+kFd0vguPrhKKv2XQD4Df7MMAAxzJIn5nG6LIw6jF+Q192iNbo46fAlfY4fAZpFh9Ij3uc+ofJ5YoSsOqaDe8njL6USXHJHT24O6PKdzgvp//jIfRGfgqz8ZAJiT0z2QzxXWhGPLO90L9OCanNkhy9BmYIYtczuXyy3kcnYYTne3eG/oxA3VrjA9krgUs1OttEF2ybVPqDO65N7Ku+QCBnXPg6s/BhM6mP+bARTweQ/kc0X/U1un6J6Xy4/kaQgVYPO+zUDZfDG/tKxYyi8qqdt6lDb0H9E3u+Rz00gaX1YrnpBOvy31Mr0fNlCXXMfiu0Lj4OoP/4DQEdFBQn0+YMhR2+JIoy93SugrS/KaO83MpL5jhrMcnS/klws3zsjlF7hKp7vi5Gy7yOcydgmh++d08uBqmT+i7hPUieI7a5rtx4BCBy8Q0XsG5HPFkPq29MK4gvzimpzMVKp7k2t1nS/d/pYNpWt2xUX0iI58rjbLkEZXMZ09zdZ8UC/z18Oyczrt9KbUW0L/V7gaJ1oA8nkbqXHaSuqQaqHT4JodPk72QdrQZMoJqN7c4u2fLQWl9EU9o69F9ogOnxvpo2odH6d36JLzKL7f5cFVukuO3A8LoWP/K0A+pyfX6Ma4QodHdPsucMb7ddvipoOV23NE718hn9Mpu2+tR/SIDp+rzTLVT1T8kjqjS67l9HL5jsbZbv5X/y65uuv3/htCR0QH6G+ni9O00eXbX/W+mRVm5YHu/KO+YGFJGT3KrrhtFz4XYX5f/UyFhu6Sow6uHksPrhIID67+9Cao0MGLvxggwaDeTqxVo1vdC4JJdH2earbGTba+lujrFRoNAm50XXHqER39cDJaQm9JvSrrkuPsfFf47XyntC6YZnu1928dNAaw/xVYIz2Xz6m1akSE5U+iy8ncSxtyrP4ndhNxAaKgYfRVzq44go0S8rl0EL0Nv5zO75IL/0GdkDrhdAgdJ1oA8rkn1pTDD7H8rjg+ztjAnY6iu3anpj+Nqby1YlTr3OFz43Wt6oFvl1yF2yVXl/ddH1ylg/oelrkHB5NrCQTv5zStLEtn9IKO0OXMTqbu8IiqGsuj0TK6a2/qd8UVN+FzGbuqzb2m/t2iUuUW31tSPyBG1Mv7rHE2xRuC4AdXIXR/sFwGmCPJ7m+nsUY7N4KTRucJnV927zOk9M91ku7SHZ6f2drQf0TfduFz4SB6rU6bzyvqTz6iLu+Skx9yIZz+KkHXWbD/FSCfO/J6O3vzOTHapSjcsdAd5yGx2p1zG5Y+P9NxFV5BOo9e2gipKw79cHxMJfRq81OtyR7UCal7dckpurzzHULH5BpAPvfGfOB0emxejiShK2Ym0tL2/ax2QC+oVvfI2tw3SsjnMr6rtVBS90Ls9HJZeHBVf5qt5fRX/4CmgzOP5TIJB/mcjujEetRl79Y4eZc7ozduUPitfGvuREAn1tVHchJ9Ywv5XMb7lswVVQK6/E6ukiO65HQOrgZxelvxHcvcWRHdNJIHQD6nI3rHjWpq4bl8Dl2Puak+0bca8x9ZWwlEQfaM7q7pC319E/lcxk6tjWqNWXwnH9QPJSPq73xG1N9RV9Tp22zY/cpgHstlMH+e/HxOh1miNc4jpBc4m+LkZB8OSSQ0ZdvyW3K6RffNdV2KxTXbhc8l7J546pztdM5xNkVjmo1/cJU9ov7PtxhE54DlMsjnCZw/p7EeSK6SFbgVdznT9/oNNkNZeUucdtF9KwShb7uotwvn1mpeNHxOzKhX6Qf1CmOarXyd08vBVskp+AdX995A6By+wnKZ+IP9cPJXdDqky8vRmjweSYt24NEVd8roHrP2rrzNXYeXq8jnwrm1Ey+dN6jSre/8VXJUl1y4O99/bu+SwyA6lssA5HPBKzod0mXZVd4cN2xyl8UxetxJCrJGgVIY29xLyOfCe2t1oZ+ctBu9+uk/PKnQCA6uNqQu2Q8b5EEdQufx71guk3yQz6lXdDqk24uflb6cF/lczvT9QZ7SJxybgnhCJyN6XObWkM8V1vcnDWonNQLiQb3KfVCnD67SXXKstTOE0zGI3g4m14A1iXzuvS6OMLprL+SXlguF5eX8ghJ8d5m518+JmEPT/KE1spc/grm19S34XIS1c9LEI6hfh3XiPb1Cv6fLp9nK7BH1TlLH3Fo7WC4Dhud6vL+d2uhO49q5XG4hl9PRuZynU4zuuPQs+SUWCyv8iM6cW9M3eqhCz0yZRq/w+vTkMzX1x+uS8z+4WunOwdU3BBA6nxeI6D2ANTyX8Plz+dE1GveaiH7UTPQFTenmOPkV6Cn0sBrdN9f1hb4Zqs9TRs/Qf3RyExXUvXTeTOqKSA+u8ovve8cYRMdZdIB87tsTHg+c2amAhXdrirtWho7okQh9zbXDIttLPjee3RI6XXxXVBvU+E7nPKgf00Gdvx/2ZwyiY3INIJ/7tgdm7ZiQfTI6YBoBGM7STe4sBAt0tjYiETryucL87qQJGdQJq4e4doZw+r5C/0Edbe6YXAPI5z6kH9rxYe6LoQCGGnhKHnnnJXTBBp3SH+iAqqPyeS9hvT898YZ+UCfG2SpV6TSbCupEl5w3nOJ7jNvc0RYHkM8fcX3OZzhjxwdnenyyT/obhS30lTxbrathHFB1kc+lXXGKEyqn0y/q8nG2LnbJvf15D0JvA5NryOeYV7tBatyOFdlHU/2m4Yc1TgudRWE550YwiP5yFflcxu6HU1LpCk+nXy+eqVPjOr3CPbjK6pL7JPQbOR1t7lyeI6InmMEn8Hkbg9N2rHCcmfvDacOHKYcvdKotLorNMqvohxNh/fnoVEFLnX5Q53e+k01yCv/ie1lSfH+nhI42dyYJvrkGBh9jP1w75j07dmQejQ7STp/MkkJnkrdd6WYZORsl1NulXXGnTSRBvUrcW5UeXCW75MrSB/X6B23uXJ4bCQUMPEY+96J/1o4hmbGJAcJZAxl9oQu3xblrke1+hc9VV9wtKKWTTmdsnYmgS+4dhM5k/issdE8o/Q/RDxfH0TWamYcTg17e6psLS+iFxeiEjvdzPjtnpx74S50UezsV2ursg6vHZcW+gnFwFV1xXOYxuZZM+sZtBz73JD1mx5XpsdGhtEm3uQuFLq+5b4Yg9C3kc3FXnIfRfYvv3m3v1cZH/KLO6JLjjahjbo3NPCbXEkn6voN8TmANTdvxJfP4weRAmr6gqiX05VxkQkc/HJ9nH89OzzycruB1vl8bvRbCeliFZJrtXXtQr7e5A7TFgdS9LHzOOIweL7Jzj+5PfPtt/3VWnyI3xXEpLDC312+tFyMROvK5Iv3d2ZkSOpHTKXxXydWYOV19tLvkiGk2tLljoTtQxpqCz32wVF9czHE217/+5u9//49v/5wyR1xqlzuTArvmvrURutDxfs7oijtTNJxOS535oE45vSre+V5u3w+7H6z4foyuOCx0B9ZIBj5PTF8cfRelzvrXX3/9zTer1LU1NktxETryueL1hw9nCpHU1R8B/0H9brrk9rHNHW1xYHgGPk/Qvjiiv1wVu4sNXnr3ibv5Av8RnbnPvRSV0JHPFbsfP9Q5u8EpM6h725x8Ug//4Kp/8f0XPKJjoXuvMzgLn3dicCbmPne3i8UOg1/uIl/o3MG10suIhI58rnimhN50eujF9ypVfq+oj6z4zu6SwyM6nxdY6I4B9ATvkyG6DBw73tw0qa7Q5YNrq5EJHT5X/PqhxVkLptPpne81Yue7/OCqgrHz/d0xhM7nuWkkBpAeRz6P9x1Vvkm9leguCIS+lIuP0OFzY6ep8ltSVz5nT7OdeGx75+x8Z6ySKwdeJYeuOLTF9TapBw7yeRDiN4xOP15vEoPoyytsCpELHe/nDHbPr1VOB3X2KjlvszNXybEPrh57Ft+xWkZAYtrigDmRQT4PhDnq2DFmK3yhSx7R3e3IhI58rg6ufVRGvwXtdPnOd9Edl0PWKrljjxF17IpDW1xPMzwNnwek72HMp9bWW6y59GYZJoU8y+d2ZEJ3RlMGSP16fu6hdP0uOaJHjuqSowi4Sk5x0+mfpY6uOLTF4cIafB6EoXh1utNXUYp8odMs2SyiEnr2C7X+Frw/b/JBQRffTz2RHFz1ohLuwdWbO98P8YguIBnb4kDfGHzeG0X31d+JdFu6Kk6/K05Nz0Vwbc1p+hy8vjj/xO/iOZ3TGQ/qBFV5lxz/4CpWy0hIxBFVkPrCib3P8fuH34xWJITuLq7wYa6WWQtf6MjnDOqP6Df58NnrgYP6CV/qohf1SoXh9E8j6sf7WC2DbXE9ijWRhc97o9PdLW0QQtceRC/IhS5jo4R8LsdUj+gKr6DernT+iLrfcthaCDldQU+zlfdxcA1tcT3K0Ax8zsOaysa/J44WOn8QXbHY5YT+clXuc2DunLfj3yV3FsrO9+aEeo19cZV5cHUfq2XQFteb9D9KtM+xhYfwqHIiJfTlFfmuuGiFjno74xH9IpjUxWtnVFAnx9n4V9RZXXLHeERHW1wvkr4Pn/MZeBL/njha6DmJ0Je6LPRtF/lc6xH9QvncA48muTC75Kq1a8jiezWEg6sHmERHWxwe0OHzYFiTmdjvifMR+pK8zT0aoSOf8yfRL+qcE/ivnTnV3vlebU2zNbQuP7hKd8lhEh1tcdgoA58HxFSrcmPH1joldP1B9GWe0Nd1hb7mIp/r8P5CQUudnmaTPKjXTrze0hk31DldcgeKimASHcyjLQ4P6D3oc8PqexjztTKU0BX5Ffk2d353now1F/lch93LixZK6l5mZ66S43fJ0bfZCKszdr7jEV3Ci78YILak7jvwuZDBuXhPofsI3c3L59a6JvRNLZ+D9MeL33Gu4He+h7VKrlF95zldfWin4xEdF1p6DWskk2yf4/88+jILIXT5IPpiN4VeXN9CvV0LUz2iM51+dnc73wmlK/ya5Oigjkf06NviAEIm3+dYsMe3aPyFvrGFfK7HztVFO+cEdE4XBXX1pu79qE5dceFPs1X+B3bGKHovkR5Lvs9xd40YWgtf6PmuNsVtlJDP9dj9eHGlnK4R1MPP6VXiQZ3fJYeau5DnpgFE4MhIjH2uGHwa46E1evJLuCouLx9bE++VkfscPPvfq7rQrzhSD//gKl1950q9bZqtgu2vIl781QBxZGgaPtckTtPoripz36HQC0tdFfq2i3q7Ju+vGlxcMJQe/sFV5i65ig+3gnoFj+gYRcfEGnzOKXJkY2T07WJQoeckCb2bQi8W15DPdXl9efWJC3nxnTGiTud0eum7Urp07Uwl+sE1XGgB2IzC9zmWurMr7goy5cqEbrvdE/r6pn4+x/bXqxuonB5elxytdM7O96BOJ7rk8IiOtrieYTgDn/dMnYNoLF8LN6Hnuin0LeRzXaxfr27CflDvQpdcXebyne+oueNCCwru8DmPobl4bpVRrNmxFfpGCfk8hJp7nasWZPFd0Y0RdcHB1arv3hkMrmEUvVcK7vB5OFiTsegtdG9vlVFs6gtdusxdveeH3OSOfM4fXFNCv7y6BfWgLhtnO9Wvvleb/7yp0Bz8IulzB/OoueMmS0/6XGFOZWOyx50QeiQJfVu3yX0V+TyEZXGXzYx+M6eTne8K6doZbpccGdS9czoR1A+xLA5tcT1B3yP4PDTSsViIX3rZrtASJfSF6IWufWvNGe/kc7BzeU3L6fIuuVAPrtZIWEEdNXcJ8xhFx0qZHvW5om8sli1xxY3ohO5u33mT+3if0QGw+3+/XSqIoC5/UOcfXGXtfA86oo4+d4yi9wJDM/B5mAw8jmNLnFzo9Bu6/H9OyJvcnUA+x7K43xSXl799DuqXgTrfz2mph3xwlSDQOFsVNXfU3LHDHT5PXKu7u7VeDN5Y5i5KE7pc6PKeOLnPwc5vDfxzul/x/cI/qbOdznhQrwXY+V5DzT3po+jAmsjC573VZKjusiRI6EV68Svq7Ryses1d8Tmnk11yV7wuuXNRUOePqKtPO6i5azIfn1F00P8EPg8bcyQTq5k1BW1FN79yx0Iv6Ql9fQ35PMyae4vLJp7TbNTWGYqQD656UiVG1CvXUkfNPeGj6MD8Aj4Pn9RU9v/ZO5+mOK4si7/6Q4EkEFTm7EACKgsUARPRE+7G3Y6Obgfh7zHfoHezmj0t2eFZpFBB+V8YWhYJC4lAX4GIDm16OZtu2xJjIYUMNQUSntk2twrbacSFvK9evnxVnF+QG63Q6nDPO/dct2vcBXXoYbikJehBqF9D23lPHOZzDfxv9vf3eE3nU3LSzne5+S6843L2nP535Nyxio7OV+i5nJzD3fhnD+j8GnqgJ+hhYEvQ1zcxn5uh5bmfoel755jv7HW2XXlKTn6cjYELvvd0twzqX0F+DHp+2dbR6c6aICke3l3WF3T9vzD0a2Uwn+vitzx3maaTnOtus+2kUzvz95PamTOM92/huWvxJVbRkYizredYRxe8oEu21rQEvSYR9LXI5O1UfT2H5944Jq7pTErupRHznTCxos7P6acMeF3PHXTFKjoojkPP06Iw2D0RdxJ0ZswN9ULudYmgP4w63EIP4beb8twbLfbO5kWMtDrfCXHnO6fppyNy/63luYMFrKLjKIuLeo4TdiEN6ALfOgxqn+go+j0rgk6sr2A+N5dzb7T5aVDfZySd2WaTiLr84KrWg/ovFP1rLc8ddEP9KyhNQs9TpOieoofczne0GhrNxNUlgr7a2RM65nNj+NuNGHtthOa7aEPdZEqOzPdvz8q9x1W9V1fR4bmD3NCl03MoeqzFPUYUPTSbiasvhpLTb6kUuUPPdW6oNogEczqj6Ua32TQ0nT+i3vbf/6bluYNPsYruPCMz0PN06Zt2TM6pw0W2yy1vcpcL+uPI/NIa9FyL3HeNt2GS73tOpuS+5lJyLUX/GvWvqH/Fyhr0XA+/NO7aHXQmUM7JYijviZPfZtEWdGJrBX67QbYbZ3JxSE7SJSdeURdJOsFpuq7nDj5TlxqsrEHPidKEa50ysvsm4d2l9AV9KzLf+wo916Pwv81mk9f0/TPc9z3xwVVG0gUpObn5TnJOYBVdiwXH619BYRp6njq+UzM6SWck2eXWd9xFt1nWI9OnUzGf6+J9R4LelMzp8ei7+W22uKh3XCVHon4H6gzPvffwR6vQ88s2o58Y7pLi13t1LUWvma9yl1gL0HNtnjSJRoOd0+XbbLrJ9500Dq7uIBanx2eeAu5SnICeX7IZnQx3YbJMc2mN1tBDK82v0WoIPTdK/n+aREzUxSk5+Yq6zYOr3yIWh5NrPYd3FXpui9K0qyvo/Jyr3/sqX0OnTTp9xx1+u+n612YM1nyPazpznC1BSI6wcnA1rul6bXEAnrvDFGeh59bou+Fywp14HLI1cVosL1oS9K0VzOfG61+bv6DBpeQ4TadPcHCVkNfOPBWvqNOHWFwHfOor4OwZ9Cr0vPsbZuRHWWRP6PJWGXnIPQxWo0g/4/7WW/3MrbzSB/i5V83TNBqcpDPm+7kpud3MOt+/brfJ9djmGk6ugb5J6PklU3SqlJGWs9BhFi2WAqO9MoJfvHq9rEBHbDdPkyAlt9dFKbm/9diIjvpXDOjQ80t1ey0MVh6vRSLjWjsSR9Rk59/MnUKvXIWeG1lFZ0T9vJCcNCWnX/re4SEXxOJwcq236JuCnlu/j17NUs/5B/R2VDw0GoljMnFi60Dc414ZzSnQId43BwdNHvMpOd2QnK75jkJ3nFzDgA4974xyprGFh/xqGBW5yyNx8iZ382vo0dYpx31y2FOgY558f0A0GYTbbLHjbPQZObgaQ8N8f6o1ooMFeO54QYee/0j5+kxmE/r5orm+aTYSV5cUvwaP5CF3xlmYHTGh5yD36qBNU6Lp8oOr5lNySTUdm2taOOm5A/869DwLcqOV7G6sRfKL4vJInLgnjnhoagl9vKSMALYPfqZp5EH9BZ+S07/Npt/5rjWig8//pABK4qDnJ3gDU24F4vilNf1IHHEvtHANPToVibvR5ytDIBZ3EEPbfN+XDOr2Dq4+xYiOnDtK4qDnneP3Tzim5/zSGkXibDyhh48j7UhczAioDhaUQRCLI+SaLlhnE9TD0ify3p/y5ntb1Z/dhjrDc+8NCrOXRs9RGkd6Hgu4ixz32ic2ntDDrchASxzqZMzH4nhN119R195m4zRdq/P9KUZ0nFzDmTXouZGF9KrlhTW+WZV33PUvoRO1wELIPVqL3WWpXCkrk+CI6sHhIa/p8pScbFBnb6iLRZ0Nye2gXEaDhc985RYgfxN6niF++daMXT2/SDC5mrjFuu6ELnhCF95aY37vqQFPmQRsk57T9zb8nK6VkiM9p08/JcdXyXGD+rfHP+h/1eFT106ugYEZ6HmmlEcnHdLziBx34RK6/DKL+dMsUexw6nS/YT0H+VeHhFzUG2cjr50hUTdYO/OWqD/DiA7PvQcoj0HPM8YfmbCp55JomdYSun6RO7EaRbo17mFAVMeKyjTgm8MfOTg8MPigzg/qkpScgW02rVd08JlyCjBSgZ5njV8ac0XPqW1NuoQuv4VuPuROxkKqcThsrh3+zAF9AlFvnivqlg+uMqK+gxEdnnv3kxuCnjtA4dqMI3oerRp23OuypbWVraijUpnJlNrbsbl2GIcZ1JssRg+umu9838ErOjz3XqCvAj13gfKVSfv7arwwGqx9FTjugpA7t2s33e8rkAL+X79//fowhsmUHKPpzDab6ZRce1jXG9GBSzl34F2HnruBNzIdpEoyPWcup4YdOe5hIG9ylw/oIbXJFFVaYHPtNXFa1IXbbFkP6oz33h7UNV7RwZcOee6gMA49d4ViuhvpsX44eSSOHPe6jYw7hdy1W18r18sKpIT/5HhEP1PTTabk9gWDuv6D+s6ZKbmnz9DoDs+9q/GHq9BzZ8hfraRmtwebpOfCA6T2HfcweBxFui/oEwM5BVKj/Op1jEPCfEpOfnCVH9SlXXIY0eG5dznlG9Bzh8iNTKQVh3u0tRbJlrntZ9wJysTp7aBXx/oUSJNtGtE5SZeb7+IqOfnB1V3pwVWM6PDcu5n+CvTcKfoGq2nF2yNBVtxYxr3+CfW4yzNx8h30yvW8AimP6G/evI7DpORsm++EzHxnNR0jOjz3LiZ3DXrunO0+mUYcjvRckBU31+Nepx53eSZO3OI+PuKpdAH+9psWvKbLameIBHdcBAdXNTQ9Dkb0rvbcQXEKeu4aXv9NC8/nggGdCKnH3UYkLnyoM6BvbQ4VlQVQLnN0dHRa0wntbTZC3vkueFAXbrPt/HvXrq7BcwfDgVvcLCpgumSGez5nsuJGl9bqkkNrRPhYa0AfLSsLgG+OWpwM6m/Eom7l4KquqBM7u2iXMeO5A0TixktKKeDnhmcN2u0Jn88JZmctCANtx30xTDsTF63dL/nKBiBPI3pM01lJJzI8uLorkPRTL+oY0Y147gCRuKl+1QL4lI2za7cT8VIZQ4dZlmSROHkmLorWNgrKFuh/PYqRwHw/kFXJNSTmOw3qxlfUd553Zy4OnjvwbgUuMYlYU/yk6pSZ8Zyx27kBnXtC1xP0unBnTV4rE6395aucsgX4K43oMdJIyTUE5rvuoM6uqD9/9lyaiwMLLnjuoDAbOERlOK7noDRYNTKeJ5/PaUA3uoUurXEX306NovWNPyp7AD8+ovNzOv+g7v7B1ef/6EbTHTdUwUA1cIeZq6f1HEP6bKBPyI/nwtZX/S30urDGXfiEHmU3nmNElw3qclFvGkzJicx3jOjd6bkDbzBwiGtlBU6/pA/NdBJul4zn/FkW+Ra6/oBOT+gYz51/Recl3aD53hCa7+buuDzdx4jefTl30OfSEvpYQb0FKA+PB5psMl0y0h10/UxcnSLu0j9C1iKM5904ovPuu62DqwTN6Z2vqD97Js3FgS9iOXeAuyzjfeosQPFaRTsMJ4yX0Q662VqZWiAV9NUoeRhuI6+AA6/o0kFd4r0TGRxc3RWa7uDLf1HZAspjLgXcFeDutdyoaj2eRzoHxRl0BL0uLIkjwq0o6Xh+/4GngAsjevYpOeMHV7suFwfPHfRV3AnEjXqKA+SvTOlP55I69ICQh9zlLe6iJ3TGbS8r4NYrOi/qFg6u7ps5uHrCrvAwOljIOucOrjjjuFeHygqcG46rJB3OT+Q8WpOyvsnLb1irm++U0d5Cj9acDsNhRGeC74RU0vnaGUFI7qXOHRfZiA4+PfHcARz36YICHfvuIX2bwuk8vrJ2DjW9RJzYcV+Nou522/GKzs/pFlJyzDYbIVpR332+K8vFgc//pLIElCquzOeT/QpcRH504mKv/dGqeDqPr6zx1KwY7mGCLXRX3HYcXeORp+QMHVxlRJ3XdH5Ql+biwBcqQ4A/6ozhPuorcDHFW5MBDw3nj9d5NddPxGkJej254S54Qo+cyLYDf/tIREzSbdTOGDm4+qyLltHhuYPcDVf0fLCsQBK8EvuUvkJqLhnOBYk4oqaTcBcLehh7QufkvOirzAH5V0cCkh1cpUH90E7y/WWSznfZkRbw+X+o7AClycANZvsUSEiuf2zm9LN5EDJqLiDaokSc0Qn9nsBwj91Cj87NwrnxeA58ZkS3PacLDq7yne+8pktMd7DwhQLIuFcGfAUS4qvywI1qGH91fvRwdUum5oIz6PoTOnW+itncis7reb3vTDEcKEtHdPsr6oKDq0xK7geY7vDcZSDjfi2nJID88HQ1DFdWVjaPtfxxS8w7lPOI74iT76HrbqwRfO8rRdsdysIB/8mRgNQPrjbNH1x9KUu6g4UMPXdQdMRxnygqIaBwZfVYybfWSeiEWi5fQddqiuMf0LV6X6M1yLlrlL87EiBbUSesHlxlUnIv97vDdIfnDoYDJ5gZ9pUU4D3Y+EtECNRcvIIuOM4i13PB6dSoNZ3nla+ASzz5/ohBuM3Gz+kHjKYfNA/EczrBbLPxtTPPBUl3sHAHdU+X/XLqUE4BDfwHG+S1rxnRc95wj59PrSfXcwrEafBoPWJqXvMKuIYnHNEtpOQaDc2Dq3znu8B0B7d/+68qE0BhInCBqT4F9MgdT+kCSddPuBNhWEtdz8NgdS1ipnPgeAGsHMHBVdmLeqMpT8nxK+ovkpvuYOHjP3gqC8DIjBuVMp6yDySdu4LOEy4uC/VczgotrZ1eVIOcd30BrIEqOVnnO9HQTcmd9t4Fpjv48N3f+co+wLseuMCNvOoA4JOkc5ouqJQJE4zPNX0916uJi0jOHY7CgYLG6pr+IZdsUnK7z39IbLqD279/59+UfUDZiZq4yojqEFD46j5pX2RoY40nYSxueVFXz8OHsf9F1GqFe5BTwF38bf1cnN42m2xQ5x/UWySc02G6Szz3+fcdDsbhFLr7iTjwm6/uUz5O/wE9ESGtotcvPLC2JM+3x2riYr4BybmngNPkXh2ZRWtO10/J7Z+bkvvJdIeiJ2Xhw/m5X/9G2QaMVl1IxJUUMOa8R8eYeEDnqZ2v6HU6sHZXoueM4x61SuHyvgLdvbrmgKgTyQ+uMik5FMYl5s7v59/7g21FB96QC4m4654C5px30nT5Bnpi/aXVtZai8+M5PZ+HgS4nh1naXnu5G9bOgS9fXTN1cPXQ8MFVvkpu90XS3TXw5/+an3vPdjAOFKaD7BkvKGA28y7rdKdA3EogUfRzdtdE4zmTcW/n++5vFD0FLtPqmt6K+qG5g6sEP6ejMC45H83Nz73zO2UV0D/To1fQMaavR8cIAnECCSZFX+avsSzGxnM9x52G8/sP8gp092F0e9tswg31hu42GxQ9KXc+mJ+be99q1B34o0H23Mwr0wCvjxJyybz3iGmUYSHBXlyqy+Rc0CpDW2oYznv96pqF22yEaJuNON97/0eyZ3Rw+9hzn5v7rc2oO8gNosS9V/HyDzYo9X6MdiCOJwzv3ltaPq3myzWRnDOOe+vlHCAXJ1hRtyTqx9//4Rk9GR/NHyv6B7+22AEL8rMY0HsX3yuMJHhOj9Yf0mAsJKQpvba0XP+R5aXa4t3WP3dEONmdjXDA4/vi3F1RJ2Qr6jDdE/Ihee5zH1hcXgP9lSBrqmkO6CBXGCBN50Wd9FxTg0m77y7eu3evdvzdvdsW+U4Ju7STAPgFysXZ0vQ34pSc/pyur+jw3Ofetbe8Bq5UMaD3On5b0/mM3GoYaCs6EYQ/YuQFZkB1KUCei7N5cFV/Qz3Oi/0X2EZPxsfzc8R7v/KUFUBuyIEBXaUL8JXySNO3YnO6YGHNMrMF1aWAsnwZ3e7BVQODOkk6ttET8eFcm3d/5atLArbQJwrKBtD0XKF/4/7W6ZBctCZYWLPCLU8BLKPrivrha/mgLl5Rh+metCxursU7dgpmQGkm8wH9iqcsAfx8ifbTSdSd1fNKvwLIxRlcURfO6YkOrkLRk/Bn8twJSwUzYDh7g7Wo7IIH9ZHWoE6Tumt6TtwoK4BldP2UnIWDq8c/eEZPWhbXBrdUbeBfu4QGK/DLfV9tHE/qLup5dVQBLKM7f3B1F4qegDv/eSLoVirjQPlm5gZrSYEsyOVKx6LuVh6OmCwqANM9pdtsBvthE/bL4ECLPUUHxakgYwbLCmRFYYz21dziWk51M8DPvzrKijcJou/ig6uNs8EzegIWPvpJ0D+Ye/+PCqSKn3mtTIY7xyA/VA0Mg0gc8DMw3TN5UIeiJ1lc+3lEh6L3/mWW6bwC0HNE4nqJXNt0z17U9arkDhKK+v6L/8cz+kXcbi+utXkPit7jtTLVq74C0HNE4nqKtumeLZ0cXD1IaL7vIRh3EQsfz8cUHafX0iU/HWTLZEllBfQ8cJCpogIw3e2l5A476Yfde/FD8mAcPHe47mlTqATZMphTAPM5lhiRdE+HN7qDejPZOtt+8qg7FteQdU+b/pmsD6ErgPkcS4xIumf7oN4e1DXqYfeTB+OwuAZFT5vRjKe0qYICmM/h2KBeJvtDLod60Xco+gX8vLiGzrjMeuKwc/xP9u5mp42k++P4sRswEIjd1UsMCS5jpGakRCROxotJhLir2UMAsZh7GinKTWSVTRL9//Pw4gnb50GeqD1OAuVud4676vu5CB//qs8L+VxB2hJPQPvRPcfje661M/93Q0W/0+nhREUfUNFLErf5/aaez5HNuoCd7uUZlfSZdcmNajqt7nd6M/7mXubtNUSPrKpHkYD3di7jc0hVNahPNslN1yVHRb93cK1PRf8pljrKL+5GQD7nD56Xkj8VPqOrfFD/f4bX7h5c+9aLJ0ZmDa2ubiBbFpDPM6tG4I/ah6G2GeyHdSjqDK85Da6NG7x48lwqgsWvLBEhn3MZH5HuZ/QZPL671PRRRf/DFYNrI4PfqOgzZh4wo0Q9nx+7iYCFcYqP7/kPuTC8dufg2vcr+i8yS6i1aYEqG+/trAFmYZyXQZ2KnmdwbdyzVzJDqO/xA14a8jlLCRDrf0Z3rukFczrj6A4X10bKOdWCxW2raSsWkM+/2lkS3yApe3ZNfz/sRY6KzuBaCWtg0ejwyZR8Pi/WjYDP6NU8uHqLcfQfOh0v6BMD6UZmBE3dvNYSkM+/6jQEfEav9Ij6DRXdbXBtzOzG17BqNW0zpEQ9z6zXxENIFD6jqx1cdczobH8d88KPZnem1tqxgPd2Ajqf0b35oE5Fdx1cGzOYTbM74jU+oZPP/WxxB5dUFR7fHTM6g2slNLujvmUVpcviP/I5I4ww70cV3ceafjFZ0lkC6zC4VsatFkSqY+idRQH5nDM9LHWvflAfr+gcavmO44nBtRI2u2MxtYp6sYyAer69KGCpuwer5L6f0XE2XtBL2QOLBl3NvLfPh4dGQGOcDx/UL//znYyOk8P7Kjof0otatpo2EgH5nDNr3Eb3bO3MpXtGZ3BtzGs+pBezYRWlDQH5fGQlEb8heT/0wOiG+r07390zOttfx+zzIb2IZNfq6fLVlHz+VS8ScKalSkF9oqp/80F9MqPjrH9/RR88y/8hHUY1uW3V5Rao52kzEe+hrtUYp9Ald3FJRXf/iD7m5VPJCaZtFbWNgPf2W+26ZEBjnAcHVy/cMzof0Wfy7I7allW0KyCf3+q0BBxe861Lju/oE84PXCr6IO/8GuqPrKKmIKR8zvwiTLmt7vrTbCOXo7L+71d3nI4+ors8uyeC6UWPaXL/WcjnLH1FUlNodVcI6pejqH5BRh93Mtr+yrN7WRZ3rJpuuiAiIJ932SnDKVUfSvpkTZ/I6Dhy+YjORdX8lratnp1IQD1nZI1Wd48/qF984fZaVtBH21/dvObZfVpJo2P1bNYFvLfbtCkhgUKru+Lb+yXXVCc/ovPsXpZWavWsxQLyuW3HEhS8G1V0n4v6+Mf0yYrOCVVHg2evZBpoKia4Lucyg8zndMRBYXhNs6hT0d0n0Sd3uxuBuybbu38u8jkdcUhUh9cUuuRu/qnoOBufRJ91bxw2GEOnnuvaiiQ4UB1eU8jpZPR/nB4e9Kdy+PqpETcwD62elO1gvLfbzrIgQHEQFT2743Lz8Q+4f0TPDAjp7syu1dNpSJjI5+yIQ/3DMBRU9Myx80f0zIC9cVUo6DRDkc/t4wUB4+gh1PRpKzqT6Jn9Jy4hHTXNHLezKAg8n3ebglC9/TQMyfXNF+p5NoleQkhHvKYZziIJG/WcVQQsmAnH1ZA1sDk+ohPSKei8t1fD3qKAih6MrKLzEd23kE5B78WCoPN52kwEATOBVfTrbHyNSXTPQjoFfcsIAs7nPLgjeRdaRs8qOh/RZx3SEW9S0MnndEVCiwmsol9f//2Rj+j93PaZSb9LvUdBJ5/z4K6Iiv55GBLG17J17jlDuhFQ0Knn82Y9FsD8SUUPi/skOtvdKei8t1fEowUJD6jow+scze58RM8M5vIEGwV9zUiwyOedViLA/9RCq+jDqy8ht8ad5PuInhkQ0uexoK8bCRX53O7WJEwgo185NLsziV6tO+kU9LaRQJHP7WYk4QDn0TM0u59nBZ2Q7k9B7xkJCvmcwzwgo9Mad9rPENJpikPV63m6YSRgIKMPr2+CbY07OSwU0bOQ/kpAQee9Xd2DWIBxAVZ099Y4JtEJ6RR08vm82ookeCCjh9oad1TwI3qGkP5v9S2rp1eTEJHPdxoCkNGzD+ncZ8kf0p8LvorbnE8ln7PyFfMg+fOvACv6ER/RCxkQ0rmHTj3X0+UDOn4gu9TC1jjus/AlvVoFfW9BwsJ7OxPo4PYaO2aOinfFsd1dv6Azi0w+t3tLEjJwH50dM0dnB/1ZOiSkj9Q0C3qnIeEgn7PCHQ7eBlDR+ZB+6t4Vx+I4d4l5YPWkLQkM+TxdMQLc4e2nYYAf0o+5z8KX9OLMrtXTbQr06zk30KGMin719zGrZQjpFS/oKxIU3tttOxLgHvUPQ88xkX5+cNCfOUJ6smIV7RoJCfn88aIA90li3ys6q93P+iUUdEK6NK2i9Zogv6Rq+Xy7IYCD2vvPPLuzWiaHl08NBV1LO5ZwkM87TSOAg6SWrYENyM1HVsswk15IK7V6HtclGNTzdKUmcMWplr/Cy+gBPbsf33bFlWKgFdIp6J0FKYR+ODa+gjWwrI1jtQwhfWSpY/WkSxII8rldqwvA+NqdrrNnd1bLFAnpiYRpcZtBdPI5G9wxh95+GNLtzmqZPPafBBrSF3asolUJA/m8tyjAlOJpmt3pdqcrLnMYaEiPHllFa4mEgHy+syTAtJL7x9fY7c7BtQwhPe5ZRZuxYGpJ5fL5TisRgOtrrhU9gN3u5XXFZTPpEhyzabmIznt7uTrLiQA5JMm7TyFW9KH3J1WPTvul23/yXAJj1iwHVKslWu8Gs1AGiLxsjWMk/aR/0C/b4FloX9KTB1ZTU+B7Pk83jOQG1LMP6Yyk0xWnF9K5zsJ5FvJ5ulqTAoBatjUuKH73xh2fl1DQCelNS1cc+Zx6DrbGzd2z+9WUvXHsiiOkN6ym7Uh8Rj3vUs/BjpncfO6NOy3hIzohfalrFaUtUcD8ueoCd4AdMwywnfw++4JOSF/Y1g1wUgD5nHoeCJgwP6QXG2CjKy4L6RKGqGc1rdUEjuprlcvndflJwLEWQjoXVAnpcdtq2osErv3tlnoeLiReza8R0o9KaHPnS3pNt0x0G+KIfG4rhno+U0iy+TVCOstfp3QYyHb3XatqJREn5PNA39sBnt2v3EI6J9G5k76hWyjaNQH9cICD5M5nd0I6J9E5wdZKLfdZ5lxCPxz8wrM791re5OiKK+iw//KpEa8tdaymdFkckM+71PMMeHYnpNMVl8uL3/wO6dGO8k+/EdAPB7Bk5v6Q7tV29/MDjYo+ePmrEX/VelZVry5w3g9HPgfMu1BD+tCrkH52u/xVJaS/Ym6tLGlDPEM+jwUoU/Thc6jv7h6F9JPDg76O178+F0+ZVavroQSG/XAAm2CZYHvz+0FfyeDZq0T8tGx1cUKV/XAAB9hc3dEcxzZ3JtgaqVXVach0eG+nngNxxUM6zXHH5wd9PQNPJ9gW9qyuVSNgPxxASHcu6T6E9KMSlr/SHFfftPp97qAfDiCku7n6wbs729xpjjMKVYM+d/bDFQYkwX5J9+Ld/bSEuTVusD1Uj3VGnJHP2d8OENKvh1dfjtnmXtj+b7+wzX22Hi8I6IfLB4T0QGfSs2WwtLkXMPDt3X2xo10JmvIt6jn72wEH2b0W+t05z0K/e33P6uCGKv1wxQFRNbe7s2dGvaBn/e6J+CJes5ZR9PkS0Q8HuEqy7e7BqfS7ewmD6OyZMQ+ttl0joB8uJyCpv6/euzt3Vc/6s8en9GX1NLizIGB/O0BzXL5396OKzq3Ng2yEzY+SvrRttW3IV0jobwemV6vauzsl/aQ/V174MZVe71ltW3Upjv52+uHAu3ugI2xV3Ab75vCgP1f2s+44dsUVkC4nAvrhCgECfnfPtsEyiF6spEvVrVp17VhAPxzAu3tOWUlnED2/Qf915RveG/qZMG0J2N8OsAy2WErngGpRlS/p0Y5VtxYL2PdaEJDIf9m7g54mtjeO42daAFUU5hxYiWg7VZJCUgK00BggTV8Hi/9CgwtX143GbQFQeQX/6IshaXgTrNhcuuiCFnAAkzvP4Nw4RuylQ5nnzPl9mtzk6sbdN8+ZZ86k6VG6ud9s0SjptV4EHUm3x50IcLkM7odjBEDWDxqtVgvXweIDqt2qrhT0XY9TD534DeH+V+zDAdwIujqu1cI7bPyDXilytaLvxvudPEb06LAPB8DF2s4JJR0fS8cX0btVnl3S9Kst/RkHT9Gjw3wOwIN6+83dOTY06S1tDt63qpUiZ7N63h5nTzjxy44I/WE+B+Bg7Mx1uScd63Gb7ytF3koLi9NCN3LSIYl4Fx33w6HnAKOrrufjzrGx23E6JH2TbpZhruztx0mhlxEOMckPK6E/nLcDMPDKJV7ST6lteC8dV8VFOXnX7FNsfc8cBibSQnt4Xw2AAfX6m2t20snRESUdQY+sRGM63kS/ntxdKbSH+RyAgbdfXE+QdHOfpbdOGe/HrYfvfuU+pk8roYmHDgfP+oX2sA8HwMDomRvwn6WbnfR1BD268sqSLkvvg3keB7kWvn9+A9BzgHOXhJNu7n7cyTrHMb1GQddJaaGwrEPTU1NOPPDqWrpn++04bwdsxfkwpbdOT/6u4TL3yKp+06VgznrAoxUT+rcC+3AADLy+cH9Ft8eZfPJ+so6g34Cy9zid+7WwwzkeRb8nhf6wDwfAZysulPRTU19i87T9MR1Bj67qPU5nvSI3kOGRi8yA4A/7cADcjb5zf+cjJZ2ijqfpCHoE1fJKgfGKnDXu8DCeEuZIo+e9AaBeumHYj6OkR156R9ADrB+nP+SSjEcS8znO2wGienXhXpl0GtPNXZA7in70jqCTanl2ieklcgM5h4dnA+g59uEAoqK74q7ywfCT99ap1/R1BD2xl8ip1HMHh+7RYR8OgIex724YTt7DK3LH0ed0BJ2U6K53/b+4hk137MMBcCXP3A52jB3TCc3pN9F0BL1cLC8UuL3INpLlEo7soOAP8zkAa+rc7YTG9FOjk+43fR1Bj26W2b2w6adOdPjsGvbbAXjeFXfl0/S20U0/alPTcfVrwk7e5X2HjQf6xwP7cAC87orrsPRu9JxO77LV8HGWiEoLjJI+knO4yPN/dw3n7QC8vf3u/kc4em+3j/wH6vgeejRlPklPP3HYyAwK/rAPB8D7rrhr2Pn7+HL529yq+01fryHo0Q7eZyTO3H/1vE/wh/kcgLFV93p2Tsyd00nrtqO+mbigk9LSsuBgJO/wMcS/IZjPATj768K9rp2T4COrJm/Jnd5S07eqlWICVVcWFYfSPOFUkUkLPUfPAaLfFXctFzuHzUbbYK1/X1Ff7/Xu+3YlkUGvlEuFedwtE5LLD0vBH87bARh/QbUL396k9vYPG22jtUjPT9+3K8WEKi8xKPpg1mEkMyL4w3wOwPfy1+6CLoSy6/uHTSS91aao9+ot9Q16ay2hygUVf20mHE6eDgimMJ/zBzC62mXQPUpY9d2DZgNNp0m9N6P6xvtKMbFmZ0Ts7jmsTPQJnnA/HH8A6q/ug+6T9t7+gTeoo+pHvRjVt4pJtiRF3PqzDivjacETes4fwJrbhS9j4md2fc/403ev6sGFcrQqV8NN7v/ByrSIm82sOLmhFHreHZy3A7z+0s2EPibClLTqu7QmZ7rQrF7DW+h/NrssYjecZ5aU5NzqrnB/Oz+Ay187TOgBaVPUm4g6Zd2f1aMO67XtiilBxyfXAvlJllHBPhx/AKNnUSf0MKtOz9QbqDppB1n3pvUaywEdQVeTDoqO+RzPzyEZVqNP6L+yaFSnqkOLHB35Wf/69ev/N2rXe2ct2UFfmBbxG8yzCwuDomMfzhSANffvY+KPlBDKSvuzOrLeaDYPD/Z39+rp1Fh97vOn7a2tzY2Njc4z+yb1HFvuvZYadzCj+9BzAN2tXbjXdkZB70xJadf36Ll6w8SQN/yQeyVPSakEUWp6rkiRfv/i86dP29vU9su4h61vbGxubb/oec/xHjoZzjmY0W8a9uEA4vCmd0H3KSXtFGX9gLpuxkAeTOS2pcQvppdKFQp15VLxBfns+RSg//H+rJronJNSQQkO0lMOZvQb1od9OLYAt7lHCHpASTsddL3RSNw07s/j1HEv5LYUQqkraiUXV4qBij+uV6nuYZd/GTDnLnd8oSWQ1zowfY9x3g4Qh7GzXgc9TFqXA7tXdu1Hdqq4n/FdyrhlSSU6UmJ5rlwMC9ebMm8A6jkPAxnnJuGGmYEJ9BxAm9vcKehR+SfxXtn9mb2pzdROo3izGVTcP1anSF/LfGG2aLry3LTgwhpyWBa9T2hJDT5FzwHioV7GE/SAUlJaftppaqe4s0s7NdyfxCni9GzcklIpf9ruEg3pHOC83TeSczh63C80JO9ksA8HEJdXcQY9TErbTlHcL+t+6Gn+G/jWH93oCO459FDBKeE0iKdsOlC/KWra7CG9FOo5PqJ6hSeDUujGupvF/e0AsVn7xiPoYf5Smdf3OuV9b5cCf+I59pz+0KbfD63Ofo42/QJ+vA88+5f9poDXU7athCKiN9TMQtXcnhd4hUo9yvFMTeaObkVP3c/jvB0gPm+uv+b+blTcOhVs732kH9n5yUlHP5JNdvfot1f3eJN3yvZYliVD9Vaix+gFtqKZZhc7ZAoXugey9/SqTd+4g54D6PXe2uoo73X8D+7/PgT/uXTxu3+yUiJOil5gM9DCjOBGPnSYyj9IC23IwefoOUCsRr8nLui/cS4FBxjSy3PLgp/+jMPV4wEl9GA/yqLnAPGSZyYE/aUSDM0bN6SXCvOCIeu+w9azO5bQQfpBHj0HiJl6p0fQR98lLehk2awhfWVRCZYGsw5b2cm0DsftEw56DhC7c02CvprEoNOQjuN2XC7zRzn+x+6puxn0HICBlwg6hvTbMFuYF2yN5B3Gnj1i3R7VP5RDzwE4eKVH0KXeQceQvjCjBF/2uMNZfqhfCa7s4SkHPQdA0DGhG7LuXlqaFl3CiE6mhm2243kePQdgYi3ei2UwoQsl5MxCOdnj+aIUBCN60ob0FKPxHD0HeN391a+3SZ1rEHQ9b3fHeE5Gsg5zU49S/Jbb/2HvXnYSafo4jhcnUTkoXbAST1TrJEgC6SYcFtCLuQ6WElmwojdcBuOozYbrpBWS15p23meeh+ho0adqfp8JyczcwDf/fxVFucoEzN7sZM8BEHRya29hQsKO9vUWxnOM6B9Ry+kYCRGayF8ysZ6zH6+Yy0VHzwGGuxD0IQk92uy0o3m53ZXxHKfoXCWTpCG6DHctOJ3/+PnwaFlPD/dshp4DiEPQQyyCe/eu3qCEi9iIjr17THDbznP+ZM3n1uvn6WcARa9Gt+cAdGB/1RpB9wiN2pfSjU6TuAWn6I6z/RAESdnLVQSX7Tznv1m86JjPAQL8+dQFgu6ZZpTuu2u9PnEZRnSmVsvHATdJSX0TPTy/f7Dm/2fNH90LOnoOUJrakgR9uNqBoDvvzHSxbceL7u9T1Wo2yNtxSlLwLhzj4znP+D8e3Ao6eg5ASwOBTC5NBN1LzboRibvtTSKZWI7JopJLFwKbzq8YEzw9/2M8d/yczXB+DuAKOp6KVHI5RtC91a8b3yU/PPfsbjtGdEelfBwnvovtZa6Y6lrPLZeCjp4DlIYLW8TyDkH3PukaDs99p2SYPNTq6VGcEj8V0s5VOMHj80drbv0n6Pcz7NsBXFAcTQUTuZrIFvTVkMiG9nuavDmnRE6pGyZV0q8PUzHiEyWxf1phombs/mm+4enHDD0HcCPnS1vUgEoW9OWI+ASL91avoRBZ0TyTzFUuXaDEe4W9b+cq48Svw23a/pI79u0ApTuec2GLMfHfaLlrQecvvMt2413jOZdY4prJpnJ24PWYriSPyhXGtuy5Nd/wMJthPt8GgGJOnpf2Vp5NBN0PlNQ6bXmS/l3unHP0qMrkc5k9SsS8W7Uf5y7YVmbs7Trc5p04zOdbACiNXhb21gYlBN0XlDY7egvLdrwu8zH1KrefUDypeeaiyrbiXG+35q4eoWM+ByiO+XDuhoEpU9BXIyKxZqOnyTCd9xUiP5quMDmpN9mjlKvZKiSPc+dVxrbuuXO93b0jdPQcoGgOpwvbLVMTE7pvaL/eDvWY3jXqfUIpEYfXZdxQKefT8RhxQSyePshesq0519s3ey7+Thx6DkDNu8FiZbtoPaIIun9qIR7TW+1OjZKoSF4xmVVusifp5FZRjyX2jnI3FeaC2TvX2znLuhe4E4fzc8BsfjdYr2yXLSYl4iNzsdNBJ1QJ6Ziu6Y0moSQylBOVSa56Uc4fp+IxhXwRjcVTx4fZ6yoTt3l8/p5HkSN0zOeATfvK9sJ0TH1cMSyid4YucJpudEO3a1cIJVESP2XSU1m1cp7N76eTBYWST6BKIZneP8xdVz6OufjrcJse0POvACiNJ17V3BnSTSkm9MWIRAStdfTwNF3TOzXqX87xw+gCC/izcuZgP51KJuKF2MYiXokV4olEKr1/kimfCSzZBdbtIu++Yt8OQIuj2+nS9tbzXVGGoI9JdNB+R9e6oRjOGwqJoliGRUy1enl+Ws7l8vn8wdGbk9d/ZHLl0/OrqsrECa3bOeuzd9wxnwOYo9v10vbeajoqIug+UwKf078bPT6cR1TygkWPqr7t4lXnD/+787/e5JxtrNvFf2kNPQdcglvZvljypCPovqJ8994zWgHN5pre6VMiLuLvxQHv+cPT/MOe//1VGezbAYrjofgX1ESTflciXiuuEfR/o81GPYDlu6bze3DRVigzcHs89/9L6Oo39BxwCe7rVs8TU0HQA2h6v9MzNB/PzfVOv0mib++SwRan5x/dhuOsD599xXwOQEuj2+elHZTFYFRE0IPQbPDtu/eTesvo8U37TlAOVQZinPH8L6z3B3TM5wBmkDV3LJ8n4yKCHgSl1u/02h6u37tau96oKWRnxMsMBMz45XZ+ei42oKPnAIp597Je2SGwmE7MIoIeBEqa/UZdd39U5zHv8UX7bklfMhA9PeeEBnT0HPBK+8tiZYfFajEYmhRBDwQlCj9U1w2t696Fdh5zSj4HS3eM59bH47ljc0BHzwGowCvtPjR9OnR/TlemCPonUP6p9Rv1XtvQWlsdmWuGXm98cjLH0h1mm5fhAvsOelW2ngPQkrNpD50Vn9PdPk8vbhH0tUl2DuVZ79T1ttHqdr82lXdbht7jLadkh1HcdP/yS6+PG+N5QD/LIlnPAUqjF/Gn4Hya08fFcEzo6xLZSZRSpfmr6z2dD+zdv5S8pRntXymvedFyLN1xeO54+uN3U7FvByiOBe60y31Hroigi6DkDQ97o/Oa9te2v8b9D0a73e716vVOg5ec/AbxLEL9P/buY8lRnY8CuHpyDgg2N08zoarnmVhCmQUr2PAYYAy6iedEGKq+lkzf3P6wjZGwzu/GCfsz56+/xPg431Q/S4dsxCHPAWgSpA1fhmFHDg1dp87+HyyLEvinJ590C86/0CrO91xV2z9wR54DRu0dX5Cu90KHnIxOF+hACf3L3wuAN92HEM8Hd9muT5yPxuTAHftwADSJ244vTtfGESWnoduZAx3g/Wt94tzN18WmLMuqqsqy3GyKdS5/Xodhu+jmBw3c0c8BnNCr+TJ1J78MS/25Ax3g4Q+6zLSLsmLsr1Ntxqpys85VZnp20Nn5oMzRzwmAI07OF6xJV/ayGjrAu2sN8tzN7yvBrNpluto4Z+Pr+c/VGv0cIIqHk3NjIx2BDirurt2oz/Oiuud+NxP/lMVanqjPfwYw3Dsfj8knZZDnYDYr2tb8EjReaKGhjwe4uyZfU92vKot81kzPRhydKzhAx7wdFoCGFxLnQu07OEOHBXn0o+J+vmH7WzAT/8yY6UM5H6YGh9nk6OdgNBp5Nb8gXRtScowYgW4eHKNnazYuN0Wmr/NMOPPtufyoci6UOfo5mIyKYfuFqWObHCFAoIMK1vMblQW9HJnn4p/z7r0Pl+c25XFpPjz5in4Oxkr8ml+ebusg0AG30UcV9OrnQzBWbcSSnDB5NXfvujlDngMcyol7fpnSBIEOi/HoB3WBXhwYnuyuqMvp+5TVPC9Emh/bztnPVeFmmLeDqexV2/FL1SYIdFiMpx/UBfoR0Tm8OlOIp+SEk5u5HLQP5+Yq8nz5/RywC9fwC5Y6MwZ6S8nxAOiz6+UE+mAI9aGqC4cn+fDi7IlhLvOcmdvPAZy45pdta5PDrFQFOsDVm4/qRu4nuUv1u4Qen+WunLL/EeZMfZ6jnwOm7ZpqAkoOQUPjAh3wvoxYijsFG7q6jHWR69kIbp6vZS8Xz8dPweA8B0i2Db98dUQOojDQAR5+rybQ8+rnyTD5nbZCJvvA3cnvrAtRystqWGY/Fc7PAfW850bw7JkCvettchIA+uSroofipsvVHSbtvsJabnbK3XdZmXT32ydTFYbeVwNIvIaboQkPD3RFW+4A9N0HVS/FTY9Jfwlt8QMmUnx6xt5XA6CrlhsjtRHosBjWtzeuCuXPC8bMfU8GwPEbbo46nCvQEwKwzFV3+Zj7cvOclWszz88BorTjJvHpIYHezbF/B7DnDdiPrgKbn5ec57mR/RzAMmAb7oRReFTzY3UrcjqAh98purnGlproG+Q5YNyOtbh/i5o5RgEAezz6rGLRvVhqnleFa+T3UgESr+PGiecZufPWJgATePxVydU1rMMtqZ8DRC03kEfG8/nxmogATOHpJwWBnlc/L484PjexnwPQsOcmah0yVtLzE2wpAZgAfXc9f6Jn62p59bzIjeznADSouZHqhIxkb7mgds8dgFrPrtUco7Ofl0TeVkOeg4FsU/N8fM7SuJvh4256AjwwIxId2+2Yt8MC2HHD98Kaux00/DTNikwC4Or5jTu/xXR0tttuRz8H5DkC/Vw3+vqITALg6sVHTN331fN7ttvRzwF5jpF7knb8dGlCJgHw/uVHdPT73oYb6rmB/RyABg03V+vM+DlZzyGwVEh00dEr7eN8OD1HnoOR6KrmBvPJ/0Mjr+HT6NDRAYl+/uX2zMW8HcwUGpnn47+Clvg1n04bEVguJHq2LtnPTPe752b2cwCa9NxYI/I1ifuOT6kObALLhUTPN0znZThXxLmZ/RzASbm56m1C9qFJ3POpdWlECSwWEl2O3ZmOh+fDtN3Qfg5A444bqmn9yNp/du73nYI/R2gNsOueueuSaRjnZ5+2CzdvkOcaARygd03dt9sgcsg+TujV/Fx6P7IJLBQSPcs1K+niqtomz2bI8+dXRFMATnvp4X2nruu+bVNv68dBmDg2JfvYUdw2/Jxqb+UQgFO9/3LjKivpTJd2/nO1yd3zx/lH5LnGgAbdkov2rVrqpVZKPcmPhWAlRLeSJHEcxx7Ti60kSGt+dk2/DROLAJzk/QuR6EpO0rWp6NXm/IfnwjXyXGOQ9Ato2M2OSOz01tb3/Ti4tQpFVkuOZFGJ3IeO2/pfeX3H59H1XhA5NoGlwbvuct1dzN3NiXP3w1vkucYg5tppmnpXtkXL9v0gCMIwHPq1Y9+y/iuzZZCfzkpWXt3xOXV178VhglCHo119+8FVIXPXItLVZjqbLc7dD88soisA6vRaDM7FzHw43V6F4TAdnz3hqBMFad3xjs+v61MfoQ7Hsp4pSnQZ6Uo32+c5O5e+vkOe6wwUnqB3nQxxmeFR4sjmTXYomZ2o5n7bdFyhrk7j0KEE4GDWu0+uwkhXsR7HxD9lMVucuz8+JRoDsFMFqSVyfBsHYZQMq+bK2UkYi2qugabfro4o6gBPP7vKIj0XkT6/qlzLi2rz+P4x0RlAUs86WG89P1iFiTNUcYEStaidrPxU7sB1XA9d7QXIdDjY4x9cRTJxLb2UjXn2o/PMncl3j4jWAFbdPEtfIsnDu2NxSjRBk2i1beuGa6er01VCCcAhHr1ylcmyfD1TTWeynM84axduXj8kegPw+Vk1dZ9uxWzdHtq4Nqgjpux9w7XV9dvQIQAHePDyRmGiZ25elPI0fYaT83+Wczz3CuCd8Sw43ca799go0YtYZt8V8073p+bjhMAh8MTMtatOJhfkSiZz92zdnJWbOU/OhY/X314RzQHQ9jwT9tRfRYkzopIrWX/z+povRb2NbDIWwNXbD67aSBej97JiZzw4z2ct58InXFczEAK9a3ovXkU2JfoZ1t/qji9L44WI9NHAevqTq5QM23VRVpMXdcbK+dNc+OEJJUYBBHojenlyt/amGxHmYsq+RE2KSIfR6OPvProDtefpkxZ1VpXFMGmf26tHBGABaDrRkL3dBmFCNUxywXZCRc0ckQ4KPHz90VUtE/L1H6HOTjk034W5mymJ85svDwjAImwnCHNRzG2LaMqOAq9v+NI1XkTgQFiNUx/qbr5r6uz4Yr4ZFeb4GgtAcFrK1MP745RoiSah39b8MvSxQwBGuXr31dVCJrm7qn5YrIteXhZrEeaCq8bnpxYBWIioOa2ZW0TjNF9t+45fjq4NKQEY5cn3rjaGQM7XItbLign35/itqio3spcPLV+Zjzg+hyVx0iPPzPV+cFykuVc3/MLUKOkw1kPxxow+soGb5/m6KDYi2f+hrMpSBvk6z2UtF1yVrt/g+BwWJeiO+XqI3nejqSO7+QXqvIScAvCJdPW5PjR2Ge1/kedDI7+b0yv39dkVAVgSp+WH6NM4ciyiMzv0+4Zfqj4kAKNYT39wNZb9r707WVJUicI4ngwltrMkrJxFywh9JpdFwMIVbHwZnhNQIq5o1516qhmQ/2/VXeOq4ovvcMj8CadMxrx9XjWQL6/o0e1iTylKTIZuGif3LPKkAF5E626dcitnlOeWvK2GCrL2L1yBC3xbinKz/FN0Tu5c7EoBvMjwjQfBYs64HVUkw+zPT833eTUvO9s7xkkNxK4pgBcx37LtjlXnQQqggqQf/X6hPajCLZ7SdtNzUgvn2BPAy0h1s3ReB4tvQ1FNgPTiX1dzN7REBdjuz9ba2YwDlObMeQ1MKnyYDGC60c9OgUuD5+PZS07WKs5zaSheCtBfsRuH5UYTVQb46blKB8f813XYXjMnS7wUMOzvnJfB40ARlQZI2z1mUXwRZek+8ENbVIXlH+Okdl7zGB2QD52XlHQsu7oAqk4KM/Q9z/MPoXX9b1WEpzipo9QWHwuUdMx4WQ0ojOVmSbVR0UFJ5+k5gMP+nLwQFR2U9Lnza5jy9BwojOllSX3FvngVQOrdpfNzWPQ0AaAg9lOc1NmTeCVAGUydn8BqzLvnQHHC4zl5HWbugNZbOP+H3WgoABTlkCY1Fx3EqwFm43/LcVi2dSkAFET6WVJ3Z1+8ATBsPq6cf2HarggAhfGiBK54E0BrrZ0bzEeqqCaAPGcrDjAb1313LDZM24FC+eR57iTFGwHKYMzcfdtpmAJAgQ5Z8k4EOjDsT+v+8JyTZICChWmC3JMU7wBoo3mN43zaVAWAQln75AqBeBdA6r21U0+Phe/CAZBunCB39sQ7AebDZuHUz66lSVEwAIcowYcdLAOYjXbdIn3dKtNqO8DAHUdLfABAqVek73q6KYoHwIsTXJ1dAdDSK9rOAdhpgk+4mwVE+mbn3L9Zi3YOlIT0zgmuIl98IMDUe7uVc8+2j6PSrMIBsI8JrmJXfCzA1EZ3fGvLdtxXBYDS8OMEucg1xUcDTLU/Xjr3aNEZEOdAqZwS5FJfAJ9iaHQXzr1ZbxqKAFAi0s4PcUcW2AL4LMpD79G5I9vJNzbhACbuJRSnbiikAD6P1Jp3M3lfl3HWDkAGSUmdc3GUS59l0VV8fpa82zk6Br4lgE83NDbrVfXL+bT1oAgA5WMdk/LI8zvL0nS/fwpcz/MPh0OYs5+F3x1y3oUbBMHTab/fX+P+4pr3cfyCpM9/V3py/fCr0hwwtf54UflyLgWAMrKz4pt4HEdZuj8Fbh7hoW1KcSHFq0gpTdu286j3r0nvusHTxel4k2ZX6fFif3oKXNf3Q1uKrwUMG63HrVNNy8mIcg6UVxgXl+RRlh73T4Hn5xXcktdUFu/xv2+XF6Z1Y39n5aQURQFMddCeO5WzetwYQwGAnbj/ztXT4ynw/ENoW89BXCOAqTc7lXqcvt21DU6EA0rOO39lkudB7voH27KkqDNA0fudRUW6+a7d1EwBoOTc81cEeZbun9znRv4MINNLf9T7dtYdaIoAUO9Az5P8eyU3pfgJgNl7e7ct8dUrmwGTdqDegZ4P1/eBl1dyU/waAEUzNpOlUz6LcctQTQHUE0tx8a2Te3knF0K+5O0zAGqj39mVKdSX83bzYSiqBICdflwnP+WdnH23NwAUbdAbL1al2IHrfKtiNQfgRe8M8iw9nlh4ez9gqA96k9220GY+bhlaNas5APmmRD//d+FNCgAfQCr6oNVZbL++qq+W8+7IYKG9ygB5OEWva+R/v4NmipwUAD6OHGrGqDv5wpNntrtxu99Qler/NQNEenCM4vPvT1uPstsxrYfwtu/2mQCoD5dUn66Xnxvr2+V60u4b+lDcCQBW6Lun/THNon/JsvR2k8mtj1sWa+tfCVAUzehvOtNPWZZbrSfdXrOhKqa4NwDM221lz0I7T3GRk5IkLwgwVHWj2etM54vlxzwsXz9Ouq1BQ1eVmlykAEAKAOUgTUV7MPrfNp3pbrl9/dLcarXdLmfj7mbUNB5Us8izGwEAgKKoqtYwmqNeuzOeTGfzxeKXj9m3i8V6NptMxp12r3/JcU0dMl8HAKBslKGm6w3DGDSbzVHrv/rNZnNgGA1dv6S4uAfAXxjpGB+x2nU0AAAAAElFTkSuQmCC;" vertex="1" parent="1">
          <mxGeometry x="444" y="299.5" width="122.12" height="61" as="geometry" />
        </mxCell>
        <mxCell id="w8Vbcdg7vdcL743dD8y6-20" value="AWS CloudFormation" style="sketch=0;outlineConnect=0;fontColor=#232F3E;gradientColor=none;strokeColor=#ffffff;fillColor=#232F3E;dashed=0;verticalLabelPosition=middle;verticalAlign=bottom;align=center;html=1;whiteSpace=wrap;fontSize=10;fontStyle=1;spacing=3;shape=mxgraph.aws4.productIcon;prIcon=mxgraph.aws4.cloudformation;" vertex="1" parent="1">
          <mxGeometry x="90" y="274" width="80" height="110" as="geometry" />
        </mxCell>
        <mxCell id="w8Vbcdg7vdcL743dD8y6-21" value="IaC (CDK)" style="outlineConnect=0;gradientColor=none;html=1;whiteSpace=wrap;fontSize=12;fontStyle=0;strokeColor=#879196;fillColor=none;verticalAlign=top;align=center;fontColor=#879196;dashed=1;spacingTop=3;" vertex="1" parent="1">
          <mxGeometry x="50" y="80" width="160" height="500" as="geometry" />
        </mxCell>
        <mxCell id="w8Vbcdg7vdcL743dD8y6-24" value="Data Storage" style="outlineConnect=0;gradientColor=none;html=1;whiteSpace=wrap;fontSize=12;fontStyle=0;strokeColor=#879196;fillColor=none;verticalAlign=top;align=center;fontColor=#879196;dashed=1;spacingTop=3;" vertex="1" parent="1">
          <mxGeometry x="830" y="254" width="160" height="326" as="geometry" />
        </mxCell>
        <mxCell id="w8Vbcdg7vdcL743dD8y6-25" value="Amazon S3" style="sketch=0;outlineConnect=0;fontColor=#232F3E;gradientColor=none;strokeColor=#ffffff;fillColor=#232F3E;dashed=0;verticalLabelPosition=middle;verticalAlign=bottom;align=center;html=1;whiteSpace=wrap;fontSize=10;fontStyle=1;spacing=3;shape=mxgraph.aws4.productIcon;prIcon=mxgraph.aws4.s3;" vertex="1" parent="1">
          <mxGeometry x="870" y="299.5" width="80" height="100" as="geometry" />
        </mxCell>
        <mxCell id="w8Vbcdg7vdcL743dD8y6-26" value="Amazon DynamoDB" style="sketch=0;outlineConnect=0;fontColor=#232F3E;gradientColor=none;strokeColor=#ffffff;fillColor=#232F3E;dashed=0;verticalLabelPosition=middle;verticalAlign=bottom;align=center;html=1;whiteSpace=wrap;fontSize=10;fontStyle=1;spacing=3;shape=mxgraph.aws4.productIcon;prIcon=mxgraph.aws4.dynamodb;" vertex="1" parent="1">
          <mxGeometry x="870" y="440" width="80" height="110" as="geometry" />
        </mxCell>
      </root>
    </mxGraphModel>
  </diagram>
</mxfile>
